<?xml version="1.0" encoding="utf-8"?>
<!-- Generator: Adobe Illustrator 22.0.0, SVG Export Plug-In . SVG Version: 6.00 Build 0)  -->
<svg version="1.1" id="Calque_1" xmlns="http://www.w3.org/2000/svg" xmlns:xlink="http://www.w3.org/1999/xlink" x="0px" y="0px"
	 viewBox="0 0 50 50" style="enable-background:new 0 0 50 50;" xml:space="preserve">
<style type="text/css">
	.st0{fill:#BD1C1D;}
	.st1{fill:#FFFFFF;}
</style>
<path class="st0" d="M25,2.3C12.4,2.3,2.2,12.6,2.2,25.2c0,1,0.1,1.9,0.2,2.8c1.4,11.3,11,20,22.6,20c11.6,0,21.1-8.6,22.6-19.8
	c0.1-1,0.2-2,0.2-3C47.8,12.6,37.6,2.3,25,2.3z"/>
<path id="XMLID_211_" class="st1" d="M11.7,25.8l14.5,8.4c0.5,0.3,1.1-0.1,1.1-0.6v-3.2c0-0.4,0.3-0.7,0.7-0.7h7
	c0.4,0,0.7-0.3,0.7-0.7v-7.3c0-0.4-0.3-0.7-0.7-0.7h-7c-0.4,0-0.7-0.3-0.7-0.7v-3.2c0-0.6-0.6-0.9-1.1-0.6l-14.5,8.4
	C11.3,24.8,11.3,25.5,11.7,25.8z"/>
</svg>
