<?xml version="1.0" encoding="utf-8"?>
<!-- Generator: Adobe Illustrator 23.0.0, SVG Export Plug-In . SVG Version: 6.00 Build 0)  -->
<svg version="1.1" id="Calque_1" xmlns="http://www.w3.org/2000/svg" xmlns:xlink="http://www.w3.org/1999/xlink" x="0px" y="0px"
	 viewBox="0 0 120 120" style="enable-background:new 0 0 120 120;" xml:space="preserve">
<style type="text/css">
	.st0{fill:none;stroke:#020203;stroke-width:0.9895;stroke-miterlimit:10;}
	.st1{fill:#27301C;}
	.st2{fill:none;}
	.st3{fill:#5A642A;}
	.st4{fill:#28311D;}
	.st5{fill:#FFFFFF;}
	.st6{fill:#FFE6A1;}
	.st7{fill:#020203;stroke:#020203;stroke-width:0.9895;stroke-miterlimit:10;}
	.st8{fill:#DB5920;}
</style>
<g>
	<path class="st0" d="M64.2,31.6"/>
	<path class="st0" d="M74.9,38.2"/>
	<path class="st0" d="M70.2,37.6"/>
	<path class="st0" d="M74.9,38.2"/>
	<path class="st0" d="M78.4,38.3"/>
	<path class="st0" d="M74.9,38.2"/>
	<path class="st0" d="M84.8,32.7"/>
	<path class="st0" d="M74.9,38.2"/>
	<g>
		<path class="st1" d="M111.5,85.3L111.5,85.3 M111.5,85.3l0,27.9L98.7,91.8C107.6,88.6,111.5,85.3,111.5,85.3 M111.5,79.3
			c-1.4,0-2.7,0.5-3.8,1.4c-0.3,0.2-3.8,2.9-11,5.5c-1.7,0.6-3,1.9-3.6,3.6c-0.6,1.7-0.4,3.5,0.5,5l12.8,21.3c1.1,1.8,3,2.9,5.1,2.9
			c0.5,0,1.1-0.1,1.6-0.2c2.6-0.7,4.4-3,4.4-5.7l0-27.7c0-0.1,0-0.1,0-0.2c0-0.4,0-0.7-0.1-1.1c-0.3-1.9-1.6-3.6-3.3-4.4
			C113.2,79.5,112.3,79.3,111.5,79.3L111.5,79.3z M111.5,91.2L111.5,91.2L111.5,91.2L111.5,91.2z"/>
	</g>
	<path class="st2" d="M74,107.7c0.2-0.6,0.5-1.1,0.9-1.5c-0.5-0.1-1.1-0.1-1.7-0.2C73.5,106.5,73.8,107.1,74,107.7z"/>
	<path class="st2" d="M84.6,107.5c0.2-0.6,0.5-1.1,0.8-1.6c-0.5,0.1-1.1,0.2-1.7,0.3C84.1,106.5,84.4,107,84.6,107.5z"/>
	<path class="st2" d="M94.2,105.1c0.2-0.9,0.7-1.7,1.3-2.4c-0.9,0.4-1.9,0.8-3,1.2C93.2,104.2,93.8,104.6,94.2,105.1z"/>
	<path class="st2" d="M64,105.4c0.5-0.6,1.1-1.1,1.8-1.4c-0.8-0.3-1.7-0.7-2.6-1.1C63.7,103.6,64,104.5,64,105.4z"/>
	<path class="st3" d="M99.8,100.8c-0.2,0-0.3,0-0.5,0c-1,0.6-2.3,1.2-3.7,1.8c-0.6,0.7-1.1,1.5-1.3,2.4c-0.5-0.5-1.1-0.9-1.7-1.2
		c-2.1,0.8-4.5,1.4-7.1,1.9c-0.3,0.5-0.6,1-0.8,1.6c-0.2-0.5-0.5-1-0.9-1.4c-2.8,0.4-5.8,0.5-8.9,0.1c-0.4,0.5-0.7,1-0.9,1.5
		c-0.2-0.6-0.4-1.2-0.8-1.8c-2.4-0.4-4.8-1-7.3-2c-0.7,0.4-1.3,0.8-1.8,1.4c0-0.9-0.3-1.8-0.7-2.5c-1.7-0.8-3.4-1.8-5.2-3
		c-3.1,0.1-5.6,2.6-5.6,5.8c0,3.2,2.6,5.8,5.8,5.8c1.8,0,3.3-0.8,4.4-2c0.1,3.1,2.6,5.5,5.8,5.5c2.5,0,4.5-1.5,5.4-3.7
		c0.6,2.5,2.9,4.3,5.6,4.3c2.6,0,4.8-1.7,5.5-4.1c0.9,2,2.9,3.4,5.3,3.4c2.7,0,4.9-1.8,5.6-4.3c1,1.1,2.5,1.7,4.1,1.7
		c3.2,0,5.8-2.6,5.8-5.8C105.6,103.4,103,100.8,99.8,100.8z"/>
	<path class="st3" d="M26.6,15C26.6,15,26.6,15,26.6,15c5.1,0,10.4-7.6,12.7-11.2l-3.1-0.1c-2.8,4.1-6.8,8.7-9.6,8.7c0,0,0,0,0,0
		c-2.9,0-4.3-4.9-4.8-8.2c-0.8,0.2-1.7,0.4-2.5,0.7C19.9,8.6,21.6,15,26.6,15z"/>
	<path class="st2" d="M107.5,95.5c-0.1,0.7,0.3,2.4,4,5v-8.6C109.6,92.7,107.6,94,107.5,95.5z"/>
	<path class="st3" d="M107.5,95.5c0.2-1.5,2.1-2.8,4-3.6v-2.8c-2.5,1-6.3,2.9-6.6,6.1c-0.3,2.7,1.9,5.5,6.6,8.4v-3.1
		C107.8,97.9,107.4,96.2,107.5,95.5z"/>
	<path class="st4" d="M9.8,68.7c2.1,0,3.9,1.7,3.9,3.9c0,2.1-1.7,3.9-3.9,3.9S6,74.8,6,72.6C6,70.5,7.7,68.7,9.8,68.7 M9.8,67.4
		c-2.9,0-5.2,2.3-5.2,5.2c0,2.9,2.3,5.2,5.2,5.2c2.9,0,5.2-2.3,5.2-5.2C15,69.7,12.7,67.4,9.8,67.4L9.8,67.4z"/>
	<path class="st4" d="M13.7,103c2.1,0,3.9,1.7,3.9,3.9s-1.7,3.9-3.9,3.9s-3.9-1.7-3.9-3.9S11.5,103,13.7,103 M13.7,101.6
		c-2.9,0-5.2,2.3-5.2,5.2c0,2.9,2.3,5.2,5.2,5.2c2.9,0,5.2-2.3,5.2-5.2C18.9,104,16.6,101.6,13.7,101.6L13.7,101.6z"/>
	<path class="st4" d="M14.4,10.6c2,0,3.6,1.6,3.6,3.6s-1.6,3.6-3.6,3.6s-3.6-1.6-3.6-3.6S12.4,10.6,14.4,10.6 M14.4,9.4
		c-2.7,0-4.9,2.2-4.9,4.9c0,2.7,2.2,4.9,4.9,4.9c2.7,0,4.9-2.2,4.9-4.9C19.3,11.6,17.1,9.4,14.4,9.4L14.4,9.4z"/>
	<path class="st4" d="M57.5,93.1c0,0,14.6,17,42.8,1.4c1.3,2.1,2.5,4.2,2.5,4.2s-24,18-47.7-1C56.8,94.4,57.5,93.1,57.5,93.1z"/>
	<path class="st4" d="M73.3,82.4c27.2,0,36.3-16.8,36.7-17.5c0.3-0.6,0.1-1.4-0.5-1.8c-0.6-0.3-1.4-0.1-1.8,0.5
		c-0.1,0.2-8.7,16.1-34.4,16.1c-22.5,0-38.4-18.3-42.2-33.6c0.6,5.4,2,10.5,4.1,15.2C42.9,72.8,56.2,82.4,73.3,82.4z"/>
	<polygon class="st4" points="53,82.6 55.3,78.5 60.5,80.6 57.8,85.5 	"/>
	<polygon class="st4" points="89,80.3 94,78.5 99.6,87.6 93.7,89.6 	"/>
	<path class="st4" d="M56.6,39.7c-1.5-0.6-3.2-1.5-4.6-2.9c-3.5-3.6-4.5-9.5-3.2-17.4c0.2-1.4-0.3-2.6-1.4-3.1
		c-1.2-0.5-2.6-0.2-3.5,0.9c-2.4,2.7-4.6,8-1.6,17.8c0.1,0.3-0.3,0.8-0.8,0.9c-0.4,0.1-0.8,0.1-1.1-0.2c-0.7-0.6-2.8-3.6-0.6-17.1
		c0.1-0.7-0.4-1.4-1.1-1.5c-0.7-0.1-1.4,0.4-1.5,1.1c-1.8,10.6-1.3,17.2,1.5,19.5c1,0.9,2.4,1.1,3.6,0.7c1.6-0.6,2.9-2.3,2.4-4.1
		C42.6,27.3,43,22,45.8,18.9c0.2-0.3,0.5-0.2,0.5,0c-3.1,18.7,7.3,22.9,11.9,23.9c0.8,0.2,1.5,0.3,2.1,0.3
		C58.9,42.1,57.7,41,56.6,39.7z"/>
	<path class="st4" d="M110.1,35.3c-0.3,0.3-0.7,0.3-1.1,0.2c-0.5-0.2-0.8-0.7-0.8-0.9c3-9.8,0.8-15.1-1.6-17.8
		c-1-1.1-2.4-1.5-3.5-0.9c-1.1,0.5-1.7,1.7-1.4,3.1c1.3,7.9,0.2,13.8-3.2,17.4c-1.4,1.5-3.1,2.4-4.6,2.9c-1.1,1.3-2.3,2.4-3.6,3.5
		c0.6-0.1,1.3-0.2,2.1-0.3c4.6-1,15-5.2,11.9-23.9c0-0.2,0.2-0.3,0.5,0c2.8,3.2,3.2,8.5,1.1,15.3c-0.6,1.8,0.8,3.6,2.4,4.1
		c1.2,0.4,2.4,0.2,3.4-0.5v-5.9C111.1,34.1,110.4,35,110.1,35.3z"/>
	<path class="st4" d="M81.6,3.7h-11c0,0-2.7,11,4.7,11S81.6,3.7,81.6,3.7z"/>
	<path class="st4" d="M61.4,10.4c4,0,7.3-2.6,7.3-5.9c0-0.3,0-0.7-0.1-1h-4.8c0.1,0.3,0.2,0.6,0.2,1c0,1.4-1.1,2.6-2.6,2.6
		c-1.4,0-2.6-1.1-2.6-2.6c0-0.4,0.1-0.7,0.2-1h-4.8c-0.1,0.3-0.1,0.7-0.1,1C54.1,7.8,57.4,10.4,61.4,10.4z"/>
	<path class="st4" d="M90.4,10.4c3.6,0,6.6-2.2,7.2-5c-1.6-0.7-3.2-1.2-4.9-1.5c0,0.2,0.1,0.4,0.1,0.6c0,1.4-1.1,2.6-2.6,2.6
		s-2.6-1.1-2.6-2.6c0-0.4,0.1-0.7,0.2-1h-4.6c-0.1,0.3-0.1,0.7-0.1,1C83.1,7.8,86.4,10.4,90.4,10.4z"/>
	<path class="st4" d="M54.8,23.1c1.4-1.6,4.3-4.4,8.3-4.8c3.2-0.3,9.7,4.5,9.8,4.8h4c0.1-0.3,6.6-5.2,9.8-4.8
		c3.9,0.4,6.9,3.2,8.3,4.8h3.1c0,0.3,0.1,0.6,0.1,1c0.2-0.4,0.2-0.8-0.1-1.2c-0.2-0.3-4.2-6.5-11.1-7.2c-4-0.4-8.1,1.2-12.1,4.7
		c-4-3.5-8-5.1-12.1-4.7c-6.8,0.7-10.9,6.9-11.1,7.2c-0.3,0.5-0.3,1,0,1.4c0-0.4,0.1-0.8,0.1-1.2H54.8z"/>
	<path class="st4" d="M104.2,9.9c-10.7,3.6-18.6,2-23.3,0c-0.3,0.8-0.6,1.6-1.1,2.4c2.9,1.2,7,2.4,12.2,2.4c4.1,0,8.8-0.7,14.2-2.7
		C105.6,11.2,104.9,10.5,104.2,9.9z"/>
	<path class="st4" d="M71,12.2c-0.4-0.8-0.6-1.6-0.8-2.5c-5.1,2.2-14.6,4.3-27.5-1.2c-0.6,0.7-1.1,1.4-1.7,2.1
		c6.8,3,12.7,4.1,17.6,4.1C63.9,14.6,68.1,13.5,71,12.2z"/>
	<path class="st4" d="M94.3,50.6c-0.7-0.8-1.7-1.2-2.8-1.2h-33c-1.9,0-3.7,0.9-4.8,2.5c-1,1.4-1.1,3.4-0.1,4.8v0
		c1.2,1.8,3.3,3,5.5,3h31.4c1.7,0,3.2-0.8,4.2-2.2C96.2,55.4,96,52.5,94.3,50.6z M88.3,56.6L88.3,56.6c-0.7,0.9-1.8,1.5-2.9,1.5
		H63.8c-1.5,0-3-0.8-3.8-2c-0.7-1-0.7-2.3,0.1-3.3h0c0.8-1.1,2-1.7,3.3-1.7h22.8c0.7,0,1.4,0.3,1.9,0.8
		C89.3,53.1,89.4,55.1,88.3,56.6z"/>
	<circle class="st4" cx="64.9" cy="71.3" r="2"/>
	<circle class="st4" cx="57.3" cy="66.5" r="3"/>
	<circle class="st4" cx="48.9" cy="60.4" r="4"/>
	<circle class="st4" cx="85.3" cy="71.5" r="2.3"/>
	<circle class="st4" cx="93.4" cy="66.9" r="3"/>
	<circle class="st4" cx="100.3" cy="59.6" r="3.9"/>
	<path class="st4" d="M110.2,40.6c-2.2-1.1-4.7-1.2-7-0.4c-2.3,0.8-4.2,2.4-5.2,4.6c-0.9,1.8-1,3.8-0.3,5.7c0.6,1.9,2,3.4,3.8,4.3
		c3.1,1.5,6.7,0.2,8.2-2.8c0.6-1.2,0.7-2.6,0.2-3.9c-0.4-1.3-1.4-2.3-2.6-2.9c-1-0.5-2.2-0.6-3.2-0.2c-1.1,0.4-1.9,1.1-2.4,2.1
		c-0.9,1.8-0.1,3.9,1.6,4.8c0.7,0.4,1.5,0.4,2.3,0.1c0.8-0.3,1.4-0.8,1.7-1.5c0.4-0.8,0.1-2-0.6-2.6c-0.7-0.6-1.6-0.7-2.4-0.1
		c-0.4,0.3-0.5,0.8-0.3,1.2c0.3,0.4,0.8,0.5,1.2,0.3c0.2-0.1,0.3-0.1,0.3,0c0.2,0.2,0.3,0.5,0.2,0.6c-0.2,0.3-0.4,0.6-0.8,0.7
		c-0.3,0.1-0.7,0.1-1-0.1c-0.4-0.2-0.8-0.6-0.9-1.1c-0.2-0.5-0.1-1,0.1-1.4c0.3-0.6,0.8-1.1,1.5-1.3c0.6-0.2,1.3-0.2,1.9,0.1
		c1.7,0.8,2.4,2.9,1.6,4.5c-0.5,1.1-1.4,1.9-2.6,2.3c-1.1,0.4-2.3,0.3-3.4-0.2c-1.4-0.7-2.4-1.9-2.9-3.3c-0.5-1.5-0.4-3,0.3-4.4
		c0.9-1.8,2.4-3.1,4.3-3.8c1.9-0.6,3.9-0.5,5.7,0.3c0.7,0.4,1.4,0.8,2,1.3v-2.1C111,41.1,110.6,40.8,110.2,40.6z"/>
	<path class="st4" d="M35.4,56c0.4-0.2,0.6-0.7,0.4-1.1c-1.1-2.3-1.3-4.9-0.4-7.3c0.8-2.4,2.5-4.3,4.8-5.4c1.8-0.9,3.8-1,5.7-0.3
		c1.9,0.6,3.4,2,4.3,3.8c0.7,1.4,0.8,3,0.3,4.4c-0.5,1.5-1.5,2.6-2.9,3.3c-1.1,0.5-2.3,0.6-3.4,0.2c-1.1-0.4-2-1.2-2.6-2.3
		c-0.8-1.7-0.1-3.7,1.6-4.5c0.6-0.3,1.3-0.3,1.9-0.1c0.6,0.2,1.2,0.7,1.5,1.3c0.2,0.4,0.2,1,0.1,1.4c-0.2,0.5-0.5,0.9-0.9,1.1
		c-0.3,0.2-0.7,0.2-1,0.1c-0.3-0.1-0.6-0.4-0.8-0.7c-0.1-0.1,0-0.4,0.2-0.6c0.1-0.1,0.1-0.1,0.3,0c0.4,0.3,0.9,0.1,1.2-0.3
		c0.3-0.4,0.1-0.9-0.3-1.2c-0.8-0.5-1.7-0.4-2.4,0.1c-0.7,0.7-1,1.8-0.6,2.6c0.4,0.7,1,1.3,1.7,1.5c0.8,0.3,1.6,0.2,2.3-0.1
		c1.8-0.9,2.5-3,1.6-4.8c-0.5-1-1.4-1.8-2.4-2.1c-1.1-0.4-2.2-0.3-3.2,0.2c-1.2,0.6-2.1,1.6-2.6,2.9c-0.4,1.3-0.4,2.7,0.2,3.9
		c1.5,3,5.2,4.3,8.2,2.8c1.8-0.9,3.1-2.4,3.8-4.3c0.6-1.9,0.5-3.9-0.3-5.7c-1.1-2.2-2.9-3.8-5.2-4.6c-2.3-0.8-4.8-0.6-7,0.4
		c-2.7,1.3-4.7,3.6-5.7,6.4c-0.6,1.7-0.8,3.6-0.5,5.3c0.5,1.2,1.2,2.5,1.8,3.7C35.2,56,35.3,56,35.4,56z"/>
	<path class="st3" d="M42.7,104.6c-0.6,0-1.2-0.1-1.7-0.4l-15.8-7.8c-1.7-0.8-2.4-2.8-1.6-4.5c0.4-0.8,1.1-1.5,2-1.8
		c0.9-0.3,1.9-0.2,2.7,0.2l12.4,6.3c0.2,0.1,0.5,0.1,0.7,0c0.2-0.1,0.4-0.2,0.5-0.5c0.2-0.4,0-0.9-0.4-1.1l-12.7-6.9
		c-1.5-0.8-2.1-2.7-1.4-4.3c0.4-0.8,1.1-1.4,1.9-1.8c0.9-0.3,1.8-0.2,2.6,0.2l12.7,6.4c0.2,0.1,0.5,0.1,0.6,0c0.1,0,0.3-0.1,0.4-0.4
		c0.2-0.4,0-0.8-0.3-0.9l-9.9-5.2c-1.9-1-2.6-3.3-1.7-5.2l0.1-0.2c0.3-0.7,0.1-1.5-0.6-1.8l-3.4-1.7c-0.7-0.3-1.5-0.1-1.8,0.5
		l-9.8,17.2c-0.4,0.6-1.1,0.8-1.8,0.5c-0.6-0.4-0.8-1.2-0.5-1.8l9.8-17.2c1.1-1.9,3.4-2.6,5.3-1.6l3.4,1.7c1.9,1,2.7,3.4,1.7,5.3
		L36,78.1c-0.3,0.7-0.1,1.4,0.6,1.8l9.9,5.2c1.6,0.8,2.2,2.7,1.5,4.3c-0.4,0.8-1.1,1.5-1.9,1.8c-0.9,0.3-1.8,0.3-2.6-0.2l-12.7-6.4
		c-0.2-0.1-0.4-0.1-0.6,0s-0.3,0.1-0.4,0.4c-0.2,0.3,0,0.7,0.3,0.9l12.7,6.9c1.6,0.9,2.2,2.8,1.5,4.4c-0.4,0.9-1.1,1.5-2,1.9
		c-0.9,0.3-1.9,0.3-2.7-0.2l-12.4-6.3c-0.2-0.1-0.4-0.1-0.6,0c-0.2,0.1-0.4,0.2-0.5,0.4c-0.2,0.4,0,0.9,0.4,1.1l15.8,7.8
		c0.6,0.3,1.4,0.1,1.7-0.6l6.4-12.2c0.3-0.6,1.1-0.9,1.8-0.5c0.6,0.3,0.9,1.1,0.5,1.8l-6.4,12.2C45.4,103.8,44.1,104.6,42.7,104.6z"
		/>
	<path class="st3" d="M20.8,52.2c-0.6,0-1.1-0.2-1.7-0.6c-1.4-1.1-2-3.3-1.7-5.6c0.6-6.1-0.4-10.8-3-13.9c-2.7-3.2-6.1-3.6-6.2-3.6
		C7.5,28.5,7,27.9,7,27.2C7.1,26.5,7.7,26,8.4,26c0.2,0,4.6,0.4,8,4.4c3.1,3.7,4.3,9,3.6,15.9c-0.3,1.9,0.4,3,0.7,3.3
		c0.1-0.2,0.3-0.6,0.4-1.5c0.1-1.3,0-3,0-4.7c-0.2-4.1-0.3-7.6,1.5-8.9c0.5-0.4,1.5-0.7,2.8-0.1c0.7,0.3,0.9,1.1,0.7,1.7
		c-0.3,0.7-1.1,1-1.7,0.7c-0.3-0.1-0.4-0.1-0.4-0.1c-0.6,0.6-0.4,4.5-0.3,6.6c0.1,1.8,0.2,3.6,0,5c-0.2,2.4-1.2,3.3-2,3.7
		C21.4,52.2,21.1,52.2,20.8,52.2z"/>
	<path class="st3" d="M7.6,47.3c-0.6,0-1.2-0.4-1.3-1c-2-9.9,5.3-12.9,5.3-13c0.7-0.3,1.4,0.1,1.7,0.7c0.3,0.7,0,1.4-0.7,1.7
		c-0.2,0.1-5.3,2.4-3.8,10c0.1,0.7-0.3,1.4-1,1.5C7.8,47.3,7.7,47.3,7.6,47.3z"/>
	<path class="st3" d="M9,59.4c2.5-0.5,4.3-1.7,5.4-3.6c1.4-2.4,1.5-5.8,0.2-9.8c-0.2-0.7-0.9-1.1-1.6-0.9c-0.7,0.2-1.1,0.9-0.9,1.6
		c0.7,2.3,1.3,5.6,0,7.7c-0.7,1.2-1.9,2-3.7,2.3c-2,0.4-3.5-0.8-4.6-2.5c0,1.3,0,2.6,0,3.8c1,0.8,2.3,1.3,3.7,1.3
		C8.1,59.5,8.6,59.5,9,59.4z"/>
	<g>
		<path class="st5" d="M74.9,49.1c-13.4,0-24.3-10.3-24.3-23c0-1,0.1-1.9,0.2-3.1l0.1-0.9h47.8l0.1,0.9c0.2,1.2,0.2,2.2,0.2,3.1
			C99.2,38.8,88.3,49.1,74.9,49.1z"/>
		<path class="st1" d="M97.9,23.1c0.1,1,0.2,2,0.2,3c0,12.2-10.4,22-23.3,22s-23.3-9.9-23.3-22c0-1,0.1-2,0.2-3H97.9 M99.7,21.1
			h-1.7H51.9h-1.7l-0.2,1.7c-0.2,1.2-0.3,2.3-0.3,3.3c0,13.3,11.3,24,25.3,24s25.3-10.8,25.3-24c0-1-0.1-2-0.3-3.3L99.7,21.1
			L99.7,21.1z"/>
	</g>
	<path class="st6" d="M65.5,24.6c0,6,4.2,10.8,9.4,10.8c5.2,0,9.4-4.8,9.4-10.8c0-0.5,0-1-0.1-1.5H65.6
		C65.5,23.6,65.5,24.1,65.5,24.6z"/>
	<path class="st7" d="M69.6,24c0,3.3,2.3,6,5.2,6c2.9,0,5.2-2.7,5.2-6c0-0.3,0-0.6-0.1-0.8H69.7C69.6,23.5,69.6,23.8,69.6,24z"/>
	<g>
		<circle class="st4" cx="56.8" cy="103.1" r="2"/>
		<circle class="st4" cx="65.7" cy="109.9" r="2"/>
		<circle class="st4" cx="79.3" cy="112.7" r="2"/>
		<circle class="st4" cx="92.5" cy="110.6" r="2"/>
		<circle class="st4" cx="101.3" cy="104.1" r="2"/>
	</g>
	<path class="st8" d="M82.8,51c0,0,1.9,23-7.9,26.5C65,74.1,66.9,51,66.9,51H82.8z"/>
	<g>
		<path class="st4" d="M28.4,9.4c0.4,0,0.6,0,0.6,0c0.1,0,0.2,0,0.2,0l0.6,0c-1.1,1.7-2,3.5-2.9,5.3c0-0.1-0.1-0.2-0.1-0.3
			c-0.8-1.7-1.6-3.3-2.3-4.7C26.3,9.4,27.8,9.4,28.4,9.4 M10.5,24.3c2,1.5,4.6,4,6,5.3c2,1.9,3.6,3.4,5.1,4.4
			c-0.2,2.2-0.4,4.3-0.4,6.5c0,2.8,0.2,5.5,0.6,8.2c-3.1,1.2-6.5,4.1-11.6,8.6c0-17.9,0.1-29.2,0.2-31.5
			C10.4,25.3,10.4,24.8,10.5,24.3 M26.8,65.8C32,76.9,40.5,86.3,51.3,92.6l-7.7,14.5L13.8,90.3C17.7,82.9,23.1,72.9,26.8,65.8
			 M28.4,3.4c-2.2,0-7.7,0.3-12.3,3c0,0,12.1,22.7,9.6,23c0,0,0,0-0.1,0c-2.3,0-11.5-12.2-17-12.2c-0.8,0-1.5,0.3-2.2,0.9
			c0,0-0.5,0.6-1.3,1.7c-0.4,1.4-0.7,3.3-0.8,5.8c-0.1,4-0.2,29.8-0.2,43.7C8.5,68,21.3,54,25,54c0.5,0,0.8,0.2,0.9,0.7
			C25.2,56.4,5.8,92.6,5.8,92.6l40.3,22.7l13.2-25.1l-0.5-0.4c-18.7-8.5-31.7-27.4-31.7-49.3c0-14.2,5.5-27.1,14.4-36.7L29.5,3.5
			C29.5,3.5,29.1,3.4,28.4,3.4L28.4,3.4z"/>
	</g>
	<path class="st3" d="M111.5,80.9c-8.4,6.5-19,10.3-30.4,10.3c-27.7,0-50.2-22.5-50.2-50.2c0-14.9,6.5-28.2,16.7-37.4h-6.1
		c-9.1,9.7-14.6,22.7-14.6,37c0,29.9,24.3,54.2,54.2,54.2c11.3,0,21.8-3.5,30.5-9.4L111.5,80.9z"/>
</g>
</svg>
