<?xml version="1.0" encoding="utf-8"?>
<!-- Generator: Adobe Illustrator 23.0.0, SVG Export Plug-In . SVG Version: 6.00 Build 0)  -->
<svg version="1.1" id="Calque_1" xmlns="http://www.w3.org/2000/svg" xmlns:xlink="http://www.w3.org/1999/xlink" x="0px" y="0px"
	 viewBox="0 0 120 120" style="enable-background:new 0 0 120 120;" xml:space="preserve">
<style type="text/css">
	.st0{fill:#586534;}
	.st1{fill:#968B47;}
	.st2{fill:#FFE29B;}
	.st3{fill:#E29755;}
	.st4{fill:#DD622C;}
</style>
<g>
	<g>
		<path class="st0" d="M53.9,62.6c-1.1,1.6-2.8,2.1-4.6,2.4c-5.6,0.9-11.1-0.1-16.7-1.3c-11.7-2.4-21.6-8-29.7-16.8
			c-1.5-1.7-1.5-1.7,0.7-2.2c13-2.7,25.3-0.8,37.1,5.1c3.9,2,7.8,4,11,7.1c1.3,1.3,2.5,2.7,2.5,4.8c-0.2,0.3-0.4,0.3-0.7,0.3
			c-3.4-1.1-6.8-2.2-10.3-3.3c-1.7-0.6-3.4-1.1-5.2-1.7c-1.6-0.5-3.1-1-4.7-1.5c-2-0.7-4.1-1.3-6.1-2c-1.5-0.5-3.1-1-4.6-1.5
			c-0.9-0.3-1.8-0.6-2.7-0.9c-1.5-0.5-3.1-1-4.6-1.5c-1.5-0.5-3.1-1-4.6-1.5c-0.1,0-0.2-0.1-0.3-0.1c0.2,0.1,0.4,0.1,0.5,0.2
			c1.5,0.5,3.1,1,4.6,1.5c1.5,0.5,3.1,1,4.6,1.5c0.9,0.3,1.8,0.6,2.7,0.9c1.5,0.5,3.1,1,4.6,1.5c2,0.7,4.1,1.3,6.1,2
			c1.6,0.5,3.1,1,4.7,1.5c1.7,0.6,3.4,1.1,5.2,1.7C47,60,50.4,61,53.8,62.1C53.9,62.3,54,62.4,53.9,62.6z"/>
		<g>
			<path class="st1" d="M56.2,63.4l-0.1-0.1L56,63.1c-0.3-0.1-0.3-0.3-0.2-0.6c0.2,0,0.5-0.1,0.7-0.1c1.9,0.7,3.8,1.4,5.7,2.1
				C60,64.9,58.2,63.6,56.2,63.4z"/>
			<path class="st1" d="M55.8,62.5c0.1,0.2,0.2,0.4,0.2,0.6c-3.8-1.2-7.6-2.5-11.5-3.7c-0.3-0.1-0.3-0.3-0.2-0.5
				C48.2,59.9,52,61.1,55.8,62.5z"/>
			<path class="st1" d="M33.7,55.9c-2.4-0.6-4.6-1.3-6.9-2.2c-0.3-0.1-0.3-0.2-0.2-0.5c2.3,0.6,4.6,1.3,6.9,2.2
				C33.7,55.4,33.8,55.6,33.7,55.9z"/>
			<path class="st1" d="M44.3,58.9c0.1,0.2,0.1,0.3,0.2,0.5c-2-0.4-3.9-1.1-5.7-1.9c-0.3-0.1-0.3-0.3-0.2-0.5
				C40.5,57.6,42.4,58.2,44.3,58.9z"/>
			<path class="st1" d="M13.4,49c1.8,0.3,3.5,0.9,5.2,1.6c0.3,0.1,0.3,0.2,0.2,0.4c-1.8-0.4-3.5-0.9-5.2-1.7
				C13.4,49.3,13.3,49.2,13.4,49z"/>
			<path class="st1" d="M13.4,49c0.1,0.1,0.1,0.3,0.2,0.4c-1.8-0.3-3.5-0.9-5.2-1.7c-0.2,0-0.3-0.2-0.2-0.4
				C10,47.6,11.7,48.2,13.4,49z"/>
			<path class="st1" d="M26.6,53.2c0.1,0.2,0.1,0.3,0.2,0.5c-1.8-0.4-3.5-0.9-5.2-1.7c-0.2-0.1-0.3-0.2-0.2-0.4
				C23.2,51.9,24.9,52.4,26.6,53.2z"/>
			<path class="st1" d="M38.6,57c0.1,0.2,0.1,0.3,0.2,0.5c-1.7-0.6-3.4-1.1-5.2-1.7c-0.1-0.2-0.1-0.3-0.2-0.5
				C35.2,55.9,36.9,56.5,38.6,57z"/>
			<path class="st1" d="M8.2,47.3c0.1,0.1,0.1,0.3,0.2,0.4c-0.9-0.1-1.8-0.3-2.5-1C6.8,46.6,7.5,46.9,8.2,47.3z"/>
			<path class="st1" d="M21.4,51.5c0.1,0.1,0.1,0.3,0.2,0.4c-1-0.1-2-0.5-2.9-0.9c-0.1-0.1-0.1-0.3-0.2-0.4
				C19.6,50.7,20.5,51,21.4,51.5z"/>
		</g>
	</g>
	<g>
		<path class="st0" d="M56.2,69.6c1.2,1.5,1.2,3.3,0.9,5.1c-0.9,5.6-3.6,10.6-6.4,15.4c-5.9,10.4-14.3,18.1-25.2,23.1
			c-2.1,0.9-2.1,0.9-1.8-1.3c1.4-13.2,7.1-24.3,16.3-33.7C43,75,46.2,72,50.1,69.9c1.7-0.9,3.4-1.5,5.3-0.9c0.2,0.2,0.2,0.5,0.1,0.7
			c-2.1,2.9-4.2,5.8-6.3,8.7c-1.1,1.5-2.1,2.9-3.2,4.4c-1,1.3-1.9,2.6-2.9,4c-1.3,1.7-2.5,3.5-3.8,5.2c-1,1.3-1.9,2.6-2.8,3.9
			c-0.5,0.8-1.1,1.5-1.6,2.3c-1,1.3-1.9,2.6-2.8,3.9c-1,1.3-1.9,2.6-2.8,3.9c-0.1,0.1-0.1,0.2-0.2,0.2c0.1-0.1,0.2-0.3,0.3-0.5
			c1-1.3,1.9-2.6,2.8-3.9c1-1.3,1.9-2.6,2.8-3.9c0.5-0.8,1.1-1.5,1.6-2.3c1-1.3,1.9-2.6,2.8-3.9c1.3-1.7,2.5-3.5,3.8-5.2
			c1-1.3,1.9-2.6,2.9-4c1.1-1.5,2.1-2.9,3.2-4.4c2.1-2.9,4.2-5.8,6.3-8.7C55.8,69.4,56,69.5,56.2,69.6z"/>
		<g>
			<path class="st1" d="M57.6,67.7l-0.2,0l-0.2,0c-0.2,0.2-0.4,0.2-0.7,0c0-0.2,0.1-0.5,0.1-0.7c1.3-1.6,2.5-3.2,3.8-4.8
				C60.2,64.5,58.5,65.8,57.6,67.7z"/>
			<path class="st1" d="M56.6,67.8c0.2,0,0.4,0,0.7,0c-2.4,3.2-4.7,6.5-7.1,9.7c-0.2,0.2-0.4,0.2-0.6,0.1
				C51.8,74.2,54.1,70.9,56.6,67.8z"/>
			<path class="st1" d="M43.5,86.8c-1.3,2.1-2.7,4-4.2,5.9c-0.1,0.2-0.3,0.2-0.5,0.1c1.3-2.1,2.7-4,4.2-5.9
				C43.1,86.6,43.3,86.6,43.5,86.8z"/>
			<path class="st1" d="M49.6,77.5c0.2,0,0.4,0,0.6-0.1c-1,1.7-2.2,3.3-3.5,4.9c-0.2,0.2-0.4,0.2-0.6,0.1
				C47.3,80.8,48.4,79.2,49.6,77.5z"/>
			<path class="st1" d="M30.7,103.9c0.9-1.6,1.9-3.1,3.1-4.4c0.1-0.2,0.3-0.3,0.5-0.1c-0.9,1.6-2,3-3.2,4.4
				C31,104,30.8,104.1,30.7,103.9z"/>
			<path class="st1" d="M30.7,103.9c0.1,0,0.3,0,0.4-0.1c-0.9,1.6-1.9,3.1-3.2,4.4c-0.1,0.2-0.3,0.2-0.4,0.1
				C28.4,106.7,29.4,105.2,30.7,103.9z"/>
			<path class="st1" d="M38.7,92.7c0.2,0,0.3,0,0.5-0.1c-0.9,1.6-2,3-3.2,4.4c-0.1,0.2-0.3,0.2-0.5,0.1C36.5,95.5,37.5,94,38.7,92.7
				z"/>
			<path class="st1" d="M46.1,82.4c0.2,0,0.4,0,0.6-0.1c-1.1,1.5-2.1,2.9-3.2,4.4c-0.2,0-0.4,0-0.5,0.1C44,85.3,45,83.9,46.1,82.4z"
				/>
			<path class="st1" d="M27.5,108.3c0.1,0,0.3,0,0.4-0.1c-0.4,0.8-0.8,1.6-1.7,2.1C26.4,109.5,26.9,108.8,27.5,108.3z"/>
			<path class="st1" d="M35.6,97.1c0.2,0,0.3,0,0.5-0.1c-0.4,0.9-1,1.7-1.8,2.4c-0.2,0-0.3,0-0.5,0.1C34.3,98.6,34.8,97.8,35.6,97.1
				z"/>
		</g>
	</g>
	<g>
		<path class="st0" d="M63.5,69.6c1.8-0.7,3.5-0.1,5.1,0.7c5.1,2.6,8.9,6.7,12.7,10.8c8.1,8.8,12.8,19.2,14.2,31.1
			c0.3,2.3,0.2,2.3-1.8,1.4c-12.1-5.4-20.9-14.3-27-25.9c-2-3.9-4-7.8-4.7-12.2c-0.3-1.8-0.4-3.7,0.8-5.3c0.3-0.1,0.5,0,0.7,0.1
			c2.2,2.9,4.2,5.8,6.4,8.7c1.1,1.5,2.1,2.9,3.2,4.4c1,1.3,1.9,2.6,2.9,4c1.3,1.7,2.5,3.5,3.8,5.2c0.9,1.3,1.9,2.6,2.9,3.9
			c0.6,0.7,1.1,1.5,1.6,2.2c0.9,1.3,1.9,2.6,2.9,3.9c0.9,1.3,1.9,2.6,2.9,3.9c0.1,0.1,0.1,0.2,0.2,0.2c-0.1-0.2-0.2-0.3-0.3-0.4
			c-0.9-1.3-1.9-2.6-2.9-3.9c-0.9-1.3-1.9-2.6-2.9-3.9c-0.6-0.7-1.1-1.5-1.6-2.2c-0.9-1.3-1.9-2.6-2.9-3.9c-1.3-1.7-2.5-3.5-3.8-5.2
			c-1-1.3-1.9-2.6-2.9-4c-1.1-1.5-2.1-2.9-3.2-4.4c-2.1-2.9-4.2-5.8-6.3-8.7C63.3,69.9,63.3,69.7,63.5,69.6z"/>
		<g>
			<path class="st1" d="M62.1,67.6l0,0.2l0,0.2c0.1,0.3,0.1,0.5-0.2,0.6c-0.2-0.1-0.4-0.2-0.6-0.4c-1.1-1.7-2.2-3.4-3.4-5.1
				C59.9,64.2,60.6,66.2,62.1,67.6z"/>
			<path class="st1" d="M61.9,68.6c0.1-0.2,0.1-0.4,0.2-0.6c2.4,3.3,4.7,6.5,7.1,9.8c0.2,0.2,0.1,0.4-0.1,0.6
				C66.5,75.1,64.1,71.9,61.9,68.6z"/>
			<path class="st1" d="M75.9,87c1.6,1.8,3,3.8,4.3,5.8c0.2,0.2,0.1,0.4-0.1,0.5c-1.6-1.8-3-3.8-4.3-5.8
				C75.6,87.3,75.6,87.1,75.9,87z"/>
			<path class="st1" d="M69,78.3c0-0.2,0.1-0.4,0.1-0.5c1.3,1.5,2.5,3.2,3.5,4.9c0.2,0.2,0.1,0.4-0.1,0.5
				C71.4,81.5,70.2,79.9,69,78.3z"/>
			<path class="st1" d="M88.2,104.5c-1.2-1.3-2.3-2.8-3.2-4.4c-0.2-0.2-0.2-0.4,0.1-0.5c1.2,1.3,2.3,2.8,3.2,4.4
				C88.5,104.2,88.5,104.3,88.2,104.5z"/>
			<path class="st1" d="M88.2,104.5c0-0.1,0-0.3,0.1-0.4c1.3,1.3,2.3,2.8,3.2,4.4c0.2,0.2,0.1,0.3-0.1,0.4
				C90.2,107.5,89.1,106,88.2,104.5z"/>
			<path class="st1" d="M80.1,93.3c0-0.2,0.1-0.3,0.1-0.5c1.2,1.3,2.3,2.8,3.2,4.4c0.2,0.2,0.1,0.3-0.1,0.5
				C82,96.3,81,94.9,80.1,93.3z"/>
			<path class="st1" d="M72.6,83.1c0-0.2,0.1-0.4,0.1-0.5c1.1,1.5,2.1,2.9,3.2,4.4c0,0.2-0.1,0.4-0.1,0.5
				C74.7,86,73.6,84.6,72.6,83.1z"/>
			<path class="st1" d="M91.4,108.8c0-0.1,0-0.3,0.1-0.4c0.7,0.6,1.3,1.3,1.4,2.3C92.2,110.3,91.8,109.6,91.4,108.8z"/>
			<path class="st1" d="M83.3,97.7c0-0.2,0.1-0.3,0.1-0.5c0.8,0.7,1.3,1.5,1.8,2.4c0,0.2-0.1,0.3-0.1,0.5
				C84.3,99.4,83.7,98.6,83.3,97.7z"/>
		</g>
	</g>
	<g>
		<path class="st0" d="M65.8,62.6c-0.1-2,1-3.4,2.3-4.6c4.1-4,9.1-6.4,14.2-8.8c10.9-5,22.2-6.2,33.9-3.9c2.2,0.4,2.2,0.5,0.7,2.1
			c-8.9,9.8-20,15.5-33,17.7c-4.3,0.7-8.7,1.3-13.1,0.7c-1.9-0.3-3.6-0.7-4.8-2.4c0-0.3,0.1-0.5,0.4-0.6c3.4-1.2,6.8-2.2,10.2-3.4
			c1.7-0.6,3.5-1.1,5.2-1.7c1.6-0.5,3.1-1,4.7-1.5c2-0.7,4.1-1.3,6.1-2c1.5-0.5,3.1-1,4.6-1.5c0.9-0.3,1.8-0.5,2.6-0.9
			c1.5-0.5,3.1-1,4.6-1.5c1.5-0.5,3.1-1,4.6-1.5c0.1,0,0.2-0.1,0.3-0.1c-0.2,0.1-0.4,0.1-0.5,0.2c-1.5,0.5-3.1,1-4.6,1.5
			c-1.5,0.5-3.1,1-4.6,1.5c-0.9,0.3-1.8,0.5-2.6,0.9c-1.5,0.5-3.1,1-4.6,1.5c-2,0.7-4.1,1.3-6.1,2c-1.6,0.5-3.1,1-4.6,1.5
			c-1.7,0.6-3.4,1.1-5.2,1.7c-3.4,1.1-6.8,2.2-10.2,3.3C65.9,62.9,65.8,62.8,65.8,62.6z"/>
		<g>
			<path class="st1" d="M63.5,63.3l0.1,0.1l0.1,0.1c0.3,0,0.5,0.1,0.5,0.4c-0.2,0.2-0.4,0.3-0.5,0.5c-2,0.5-3.9,1.1-5.9,1.6
				C59.5,64.4,61.7,64.3,63.5,63.3z"/>
			<path class="st1" d="M64.3,63.8c-0.2-0.1-0.4-0.2-0.5-0.4c3.8-1.2,7.7-2.5,11.5-3.7c0.3-0.1,0.4,0,0.5,0.3
				C72,61.4,68.2,62.7,64.3,63.8z"/>
			<path class="st1" d="M86.1,56.2c2.2-0.9,4.5-1.6,6.9-2.2c0.2-0.1,0.4,0,0.5,0.2c-2.2,0.9-4.5,1.7-6.9,2.3
				C86.3,56.6,86.2,56.5,86.1,56.2z"/>
			<path class="st1" d="M75.7,60c-0.2-0.1-0.3-0.2-0.5-0.3c1.8-0.8,3.8-1.4,5.7-1.9c0.3-0.1,0.4,0,0.5,0.3
				C79.5,58.8,77.6,59.4,75.7,60z"/>
			<path class="st1" d="M106.6,49.9c-1.6,0.8-3.4,1.3-5.1,1.7c-0.2,0.1-0.4,0-0.4-0.2c1.7-0.8,3.4-1.3,5.2-1.7
				C106.4,49.6,106.5,49.6,106.6,49.9z"/>
			<path class="st1" d="M106.6,49.9c-0.1-0.1-0.3-0.1-0.4-0.2c1.6-0.8,3.4-1.3,5.2-1.7c0.2-0.1,0.3,0,0.4,0.2
				C110.1,49,108.3,49.5,106.6,49.9z"/>
			<path class="st1" d="M93.4,54.2C93.3,54.1,93.1,54,93,54c1.7-0.8,3.4-1.3,5.2-1.7c0.2-0.1,0.4,0,0.4,0.2
				C96.9,53.2,95.2,53.8,93.4,54.2z"/>
			<path class="st1" d="M81.4,58.2c-0.2-0.1-0.3-0.2-0.5-0.3c1.7-0.6,3.4-1.1,5.1-1.7c0.2,0.1,0.3,0.2,0.5,0.3
				C84.9,57,83.2,57.6,81.4,58.2z"/>
			<path class="st1" d="M111.7,48.2c-0.1-0.1-0.3-0.1-0.4-0.2c0.8-0.4,1.6-0.8,2.6-0.7C113.3,47.9,112.5,48.1,111.7,48.2z"/>
			<path class="st1" d="M98.6,52.5c-0.1-0.1-0.3-0.1-0.4-0.2c0.9-0.5,1.9-0.8,2.9-0.9c0.1,0.1,0.3,0.2,0.4,0.2
				C100.5,52,99.6,52.4,98.6,52.5z"/>
		</g>
	</g>
	<g>
		<path class="st0" d="M59.8,58.3c-1.9-0.5-2.9-2-3.7-3.6c-2.6-5.1-3.3-10.6-3.9-16.2c-1.3-11.9,1-23,6.8-33.5c1.1-2,1.1-2,2.2,0
			c6.6,11.5,8.5,23.8,6.6,36.9c-0.6,4.4-1.4,8.7-3.4,12.7c-0.8,1.7-1.8,3.2-3.8,3.8c-0.3-0.1-0.4-0.3-0.5-0.5
			c-0.1-3.6,0-7.2-0.1-10.8c0-1.8,0-3.6,0-5.4c0-1.6,0-3.3,0-4.9c0-2.1,0-4.3,0-6.4c0-1.6,0-3.2,0-4.9c0-0.9,0-1.9,0-2.8
			c0-1.6,0-3.2,0-4.8c0-1.6,0-3.2,0-4.9c0-0.1,0-0.2,0-0.3c0,0.2,0,0.4,0,0.6c0,1.6,0,3.2,0,4.9c0,1.6,0,3.2,0,4.8
			c0,0.9,0,1.9,0,2.8c0,1.6,0,3.2,0,4.9c0,2.1,0,4.3,0,6.4c0,1.6,0,3.3,0,4.9c0,1.8,0,3.6,0,5.4c0,3.6,0,7.2,0,10.8
			C60.2,58.2,60,58.3,59.8,58.3z"/>
		<g>
			<path class="st1" d="M59.8,60.7l0.1-0.1l0.1-0.1c0-0.3,0.2-0.4,0.5-0.4c0.1,0.2,0.2,0.4,0.3,0.7c-0.1,2-0.2,4.1-0.3,6.1
				C59.5,64.8,60.2,62.7,59.8,60.7z"/>
			<path class="st1" d="M60.5,60.1c-0.2,0.1-0.3,0.3-0.5,0.4c0-4,0-8,0-12.1c0-0.3,0.1-0.4,0.4-0.4C60.6,52,60.7,56.1,60.5,60.1z"/>
			<path class="st1" d="M60,37c-0.2-2.4-0.2-4.8,0-7.2c0-0.3,0.1-0.4,0.4-0.4c0.2,2.4,0.2,4.8,0,7.2C60.4,36.9,60.3,37,60,37z"/>
			<path class="st1" d="M60.5,48c-0.1,0.1-0.3,0.2-0.4,0.4c-0.2-2-0.2-4,0-6c0-0.3,0.1-0.4,0.4-0.4C60.4,44,60.4,46,60.5,48z"/>
			<path class="st1" d="M60.3,15.6c0.2,1.8,0.2,3.6,0,5.4c0,0.3-0.1,0.4-0.4,0.3c-0.2-1.8-0.2-3.6,0-5.4
				C60,15.6,60.1,15.5,60.3,15.6z"/>
			<path class="st1" d="M60.3,15.6c-0.1,0.1-0.2,0.2-0.3,0.3c-0.2-1.8-0.2-3.6,0-5.4c0-0.2,0.1-0.3,0.3-0.3
				C60.5,12,60.5,13.8,60.3,15.6z"/>
			<path class="st1" d="M60.4,29.4c-0.1,0.1-0.2,0.2-0.4,0.4c-0.2-1.8-0.2-3.6,0-5.4c0-0.2,0.1-0.4,0.3-0.3
				C60.5,25.8,60.6,27.6,60.4,29.4z"/>
			<path class="st1" d="M60.4,42c-0.1,0.1-0.3,0.2-0.4,0.4c0-1.8,0-3.6,0-5.4c0.1-0.1,0.3-0.2,0.4-0.4C60.4,38.4,60.4,40.2,60.4,42z
				"/>
			<path class="st1" d="M60.3,10.2c-0.1,0.1-0.2,0.2-0.3,0.3c-0.2-0.9-0.3-1.8,0.2-2.7C60.5,8.5,60.5,9.3,60.3,10.2z"/>
			<path class="st1" d="M60.4,24c-0.1,0.1-0.2,0.2-0.3,0.3c-0.2-1-0.2-2,0-3c0.1-0.1,0.2-0.2,0.4-0.3C60.5,22,60.5,23,60.4,24z"/>
		</g>
	</g>
	<g>
		<path class="st2" d="M60.1,64.1c1-1.6,2.7-1.9,4.4-2.1c5.2-0.7,10.3,0.4,15.4,1.6c11.7,2.8,21.6,8.6,29.4,17.8
			c0.4,0.5,1.1,0.9,0.9,1.5c-0.2,0.7-1.1,0.5-1.8,0.7c-16.4,2.7-30.9-2-44-11.6c-1.5-1.1-2.7-2.4-3.8-3.9c-0.7-1-1.1-1.9-0.9-3.1
			c0.1-0.1,0.2-0.2,0.3-0.2c1.7,0.3,3.2,1.1,4.5,1.5c-0.9-0.3-2.1-0.8-3.3-1.2C60.8,64.9,60.1,64.9,60.1,64.1z"/>
		<path class="st2" d="M59.4,64.5c-1.2-1.5-1-3.2-0.7-4.8c1-5.2,3.6-9.7,6.3-14.1c6.2-10.3,14.8-17.9,26-22.5
			c0.6-0.2,1.2-0.8,1.7-0.4c0.6,0.4,0.2,1.3,0.1,1.9C90.4,41,81.4,53.3,68.3,62.9c-1.5,1.1-3.1,1.9-4.8,2.4
			c-1.1,0.3-2.2,0.5-3.3-0.2c-0.1-0.1-0.1-0.2-0.1-0.3c0.8-1.5,2-2.7,2.8-3.8c-0.6,0.8-1.4,1.8-2.2,2.8
			C60.4,64.2,60.2,64.8,59.4,64.5z"/>
		<path class="st2" d="M59.7,65.3c-1.8,0.7-3.3,0-4.8-0.8c-4.6-2.5-8.1-6.4-11.5-10.3C35.5,45,30.9,34.5,30.1,22.4
			c0-0.6-0.4-1.4,0.1-1.8c0.6-0.4,1.3,0.2,1.8,0.5c14.9,7.4,23.8,19.8,28.8,35.2c0.6,1.7,0.8,3.5,0.8,5.4c0,1.2-0.3,2.2-1.2,3
			c-0.1,0-0.3,0.1-0.3,0c-1.1-1.3-1.9-2.8-2.7-3.9c0.6,0.8,1.3,1.9,2,2.9C59.6,64.3,60.2,64.7,59.7,65.3z"/>
		<path class="st2" d="M60.5,65.3c0.1,1.9-1.1,3.1-2.3,4.3c-3.8,3.6-8.6,5.7-13.4,7.7c-11.1,4.7-22.5,5.8-34.3,2.9
			c-0.6-0.1-1.5-0.1-1.7-0.7c-0.2-0.7,0.6-1.1,1.1-1.6c11.7-11.9,26.1-16.5,42.4-16.5c1.8,0,3.6,0.3,5.3,0.9c1.1,0.4,2,0.9,2.5,2
			c0,0.1,0,0.3-0.1,0.3c-1.5,0.7-3.2,0.9-4.5,1.4c1-0.3,2.2-0.6,3.4-1C59.5,65.1,60,64.7,60.5,65.3z"/>
		<path class="st2" d="M60.8,64.6c1.8,0.5,2.7,2,3.4,3.5c2.3,4.8,2.8,9.9,3.2,15.1c1,12-1.5,23.2-7.9,33.5c-0.3,0.5-0.6,1.4-1.2,1.4
			c-0.8,0-0.9-0.9-1.2-1.5c-7.7-14.8-7.6-30-2.6-45.4c0.6-1.7,1.4-3.3,2.5-4.8c0.7-0.9,1.5-1.7,2.7-1.8c0.1,0,0.3,0.1,0.3,0.2
			c0.2,1.7-0.1,3.3-0.1,4.7c0-1,0.1-2.3,0.1-3.5C60.2,65.5,60,64.8,60.8,64.6z"/>
	</g>
	<path class="st3" d="M52.2,47.9c0.1-2.9,1.3-5.5,2.6-8c1.4-2.7,3.4-5.1,5.1-7.6c0.6-0.9,2.7-0.8,3.3,0.2c1.7,3,3.4,5.8,4.8,9
		c2,4.8,1.9,9.4-0.6,14c-1.4,2.7-3.1,5.3-4.9,7.7c-0.4,0.5-0.5,1.2-1.4,1.5c-1.4,0.4-2.1,0.1-2.9-1.1c-1.7-2.9-3.5-5.8-4.7-8.9
		C52.8,52.4,52.1,50.2,52.2,47.9z"/>
	<g>
		<path class="st2" d="M66,49.5c0-0.8,0.1-1.6,0.1-2.3c0.1-0.1,0.1-0.2,0.2-0.2c0.2,1,0.2,2-0.1,3C66,49.8,66.1,49.6,66,49.5z"/>
		<path class="st2" d="M62.8,50.1c0.1-1.3,0.1-2.6,0.2-3.9C62.8,46,63,46,63.1,46c0.1,1.6-0.1,3.2-0.2,4.7
			C62.5,50.7,62.7,50.4,62.8,50.1z"/>
		<path class="st2" d="M58.8,46.3c0,1.2-0.1,2.3-0.1,3.5c0,0.3,0.3,0.7-0.2,0.8c0-1.6,0-3.2,0.2-4.7C59.1,45.9,58.9,46.1,58.8,46.3z
			"/>
		<path class="st2" d="M55.5,46.9c0,0.7-0.1,1.4-0.1,2.1c-0.1,0.1-0.1,0.2-0.2,0.2c-0.2-0.9-0.2-1.7,0.1-2.6
			C55.5,46.7,55.5,46.8,55.5,46.9z"/>
		<path class="st2" d="M58.8,46.3c-0.1-0.1-0.1-0.3-0.2-0.4c0-0.6,0-1.2,0.2-1.7c0.1,0,0.1,0.2,0.2,0.2C59.1,45,59,45.7,58.8,46.3z"
			/>
		<path class="st2" d="M62,35.2c-0.1-0.5-0.1-1.1-0.2-1.6c0.1,0,0.2,0,0.3-0.1c0.2,0.5,0.2,1.1,0.2,1.6C62.2,35.2,62.1,35.2,62,35.2
			z"/>
		<path class="st2" d="M62.4,38.2c-0.1-0.6-0.2-1.3-0.3-1.9c0.1,0,0.2,0,0.3-0.1c0.1,0.7,0.1,1.3,0.2,2
			C62.6,38.3,62.5,38.3,62.4,38.2z"/>
		<path class="st2" d="M66,44c0.2,0.7,0.3,1.4,0.3,2.1c-0.1,0.1-0.1,0.1-0.2,0c-0.1-0.7-0.2-1.4-0.3-2.1C65.9,43.9,65.9,43.9,66,44z
			"/>
		<path class="st2" d="M63.1,46c-0.1,0.1-0.1,0.1-0.2,0.2c-0.2-0.6-0.1-1.1-0.1-1.7c0.1-0.1,0.1-0.2,0.2-0.2
			C63.3,44.9,63.2,45.5,63.1,46z"/>
		<path class="st2" d="M58.4,50.6c0.1-0.3,0.2-0.6,0.2-0.8c0.2,0.6,0.1,1.3,0.1,1.9c-0.1,0.1,0,0.4-0.2,0.4
			C58.3,51.6,58.4,51.1,58.4,50.6z"/>
		<path class="st2" d="M62.8,50.1c0.1,0.2,0.1,0.4,0.2,0.6c0,0.5,0,1-0.2,1.5c-0.2,0-0.1-0.1-0.2-0.2C62.5,51.4,62.5,50.7,62.8,50.1
			z"/>
		<path class="st2" d="M63,40.8c0,0.8,0.1,1.5,0.1,2.3c-0.1,0.2-0.1,0.2-0.2,0c-0.2-0.5-0.1-1.1-0.1-1.6
			C62.7,41.2,62.5,40.9,63,40.8z"/>
		<path class="st2" d="M60.9,61.7c0.1-0.6,0.2-1.2,0.3-1.7c0.1,0,0.2,0,0.3,0c-0.1,0.6-0.1,1.2-0.4,1.7C61,61.9,60.9,61.9,60.9,61.7
			z"/>
		<path class="st2" d="M59.5,62.1c0.1,0.6,0.2,1.2,0.3,1.7c-0.1,0-0.2,0-0.3,0c-0.1-0.6-0.1-1.2-0.2-1.8
			C59.4,61.9,59.5,61.9,59.5,62.1z"/>
		<path class="st2" d="M55.2,49.2c0.1-0.1,0.1-0.2,0.2-0.2c0,0.7,0.1,1.4,0.1,2.1c-0.1,0.1-0.1,0.1-0.2,0
			C55.2,50.5,55.2,49.8,55.2,49.2z"/>
		<path class="st2" d="M66,49.5c0.1,0.1,0.1,0.3,0.2,0.4c-0.1,0.6,0,1.2-0.5,2C65.8,50.9,65.9,50.2,66,49.5z"/>
		<path class="st2" d="M59.4,40c0.1-0.5,0-1,0.3-1.4c0.1-0.1,0.1-0.1,0.2,0c-0.1,0.6-0.2,1.2-0.3,1.8C59.2,40.4,59.4,40.2,59.4,40z"
			/>
		<path class="st2" d="M62,56.2c0.1-0.6,0.2-1.2,0.3-1.9c0.1-0.1,0.1-0.1,0.2,0c0,0.6,0,1.3-0.3,1.9C62.1,56.3,62,56.3,62,56.2z"/>
		<path class="st2" d="M58.9,55.8c0,0.6,0.1,1.1,0.1,2c-0.5-0.7-0.3-1.1-0.4-1.6C58.6,56,58.5,55.8,58.9,55.8z"/>
		<path class="st2" d="M65.6,53.2c-0.1,0.4-0.2,0.9-0.3,1.3c-0.1,0-0.2,0-0.3-0.1c0-0.4,0.2-0.9,0.4-1.3C65.4,53,65.5,53,65.6,53.2z
			"/>
		<path class="st2" d="M62.4,54.3c-0.1,0-0.1,0-0.2,0c0-0.4,0-0.7,0.2-1c0.1-0.1,0.1-0.1,0.2,0C62.7,53.6,62.6,54,62.4,54.3z"/>
		<path class="st2" d="M56.5,56.1c-0.3-0.3-0.3-0.6-0.3-1.1C56.5,55.5,56.6,55.8,56.5,56.1z"/>
		<path class="st2" d="M55.7,44.2c0.1-0.4,0.2-0.9,0.3-1.3c0.1,0,0.2,0,0.3,0.1c-0.1,0.4-0.2,0.9-0.4,1.3
			C55.9,44.4,55.8,44.4,55.7,44.2z"/>
		<path class="st2" d="M64.8,55.7c-0.1,0.3-0.1,0.7-0.6,0.9c0.1-0.4,0.3-0.7,0.4-1.1C64.8,55.4,64.8,55.6,64.8,55.7z"/>
		<path class="st2" d="M58.7,52.9c0.2,0.4,0.2,0.7,0.1,1.1c-0.1,0.1,0,0.4-0.2,0.4c-0.2-0.4-0.2-0.7-0.1-1.1
			C58.6,53.2,58.5,52.9,58.7,52.9z"/>
		<path class="st2" d="M62,56.2c0.1,0,0.1,0,0.2,0c0,0.6,0,1.1-0.3,1.7c-0.1,0.1-0.1,0.1-0.2,0C61.8,57.3,61.9,56.7,62,56.2z"/>
		<path class="st2" d="M61.7,57.8c0.1,0,0.1,0,0.2,0c0,0.5,0,1.1-0.4,1.7C61.3,58.8,61.6,58.3,61.7,57.8z"/>
		<path class="st2" d="M62.3,61.8c0,0.5-0.3,0.9-0.6,1.2c0-0.5,0.1-0.9,0.5-1.2C62.2,61.7,62.2,61.7,62.3,61.8z"/>
		<path class="st2" d="M62.4,38.2c0.1,0,0.1,0,0.2,0c0,0.5,0.1,1,0.1,1.5c-0.1,0.2-0.1,0.1-0.2,0C62.4,39.2,62.4,38.7,62.4,38.2z"/>
		<path class="st2" d="M59.8,38.7L59.8,38.7l-0.2,0c0-0.5,0-1,0.4-1.5C60.2,37.8,59.9,38.2,59.8,38.7z"/>
		<path class="st2" d="M60.5,35.3c0,0.5,0,1.1-0.4,1.6c-0.1-0.6,0.2-1.1,0.2-1.6C60.3,35.3,60.4,35.3,60.5,35.3z"/>
		<path class="st2" d="M62.8,33.3c0.4,0.5,0.6,0.9,0.4,1.5C63,34.3,62.7,33.9,62.8,33.3z"/>
		<path class="st2" d="M64.2,36.9c-0.5-0.2-0.6-0.5-0.5-1C64.2,36.2,64.1,36.6,64.2,36.9L64.2,36.9z"/>
		<path class="st2" d="M58.3,37.2c0,0.3-0.1,0.7-0.5,1.1c0-0.5,0.1-0.8,0.4-1.1C58.1,37.1,58.2,37.1,58.3,37.2z"/>
		<path class="st2" d="M56.5,41.3c0.1-0.3,0.1-0.7,0.6-1.1c-0.1,0.6-0.2,1-0.4,1.3C56.6,41.5,56.5,41.4,56.5,41.3z"/>
		<path class="st2" d="M59.4,42.3c0,0.4,0,0.8-0.2,1.1c-0.2-0.2,0-0.4-0.2-0.6c0-0.3,0-0.6,0.2-0.9C59.4,41.9,59.2,42.2,59.4,42.3z"
			/>
		<path class="st2" d="M56,53.5c0.2,0.4,0.2,0.8,0.3,1.3c-0.5-0.4-0.4-0.8-0.5-1.1C55.8,53.7,55.8,53.5,56,53.5z"/>
		<path class="st2" d="M59.2,61c-0.1-0.4-0.1-0.9-0.2-1.3c0.4,0.4,0.4,0.8,0.4,1.3C59.3,61.1,59.3,61.1,59.2,61z"/>
		<path class="st2" d="M55.7,44.2c0.1,0,0.1,0,0.2,0c0,0.5,0,1-0.3,1.4c-0.1,0.2-0.1,0.1-0.2,0C55.6,45.2,55.6,44.7,55.7,44.2z"/>
		<path class="st2" d="M62.6,60.8c0-0.3,0.1-0.7,0.5-1c0.2,0.5,0,0.7-0.3,1C62.7,60.8,62.6,60.9,62.6,60.8z"/>
		<path class="st2" d="M60.9,61.7c0.1,0,0.1,0,0.2,0c0,0.5,0,0.9-0.4,1.4C60.5,62.6,60.8,62.2,60.9,61.7z"/>
		<path class="st2" d="M60.8,33c0-0.3,0-0.6,0.3-0.9c0.2,0.3,0.1,0.6-0.1,0.9C60.9,33.2,60.8,33.2,60.8,33z"/>
		<path class="st2" d="M57,57.8c0.2,0.3,0.3,0.6,0.2,1c-0.4-0.1-0.3-0.5-0.4-0.7C56.9,57.9,56.9,57.8,57,57.8z"/>
		<path class="st2" d="M65.4,42c-0.1-0.4-0.2-0.7-0.3-1.1c0-0.1,0.1-0.2,0.2-0.2c0.2,0.3,0.2,0.7,0.3,1.1
			C65.6,41.9,65.5,41.9,65.4,42z"/>
		<path class="st2" d="M60.8,33c0.1,0,0.1,0,0.2,0c0,0.4,0,0.9-0.3,1.2c-0.1,0.2-0.1,0.1-0.2,0C60.6,33.8,60.7,33.4,60.8,33z"/>
		<path class="st2" d="M59,42.7c0.1,0.2,0.1,0.4,0.2,0.6c0,0.3-0.1,0.7-0.1,1c-0.1-0.1-0.1-0.2-0.2-0.2C58.9,43.7,58.9,43.2,59,42.7
			z"/>
		<path class="st2" d="M63.9,58.3c-0.1,0.2-0.1,0.6-0.5,0.7c-0.1-0.4,0.1-0.7,0.3-1C63.8,58.1,63.8,58.2,63.9,58.3z"/>
		<path class="st2" d="M57.8,60.5c-0.3-0.4-0.4-0.6-0.2-0.9C57.8,59.8,57.9,60,57.8,60.5z"/>
		<path class="st2" d="M58.8,52.9c-0.1,0.1-0.2,0.3-0.2,0.4c0-0.4,0-0.8,0-1.2c0.1-0.1,0.2-0.3,0.2-0.4
			C58.8,52.1,58.8,52.5,58.8,52.9z"/>
		<path class="st2" d="M58.9,55.8c-0.1,0.1-0.2,0.3-0.2,0.4c-0.1-0.3-0.2-0.6-0.1-0.9c0.1-0.1,0-0.4,0.2-0.4
			C59,55.2,59,55.5,58.9,55.8z"/>
		<path class="st2" d="M59.2,58.7c0,0.2,0,0.3-0.2,0.3c-0.1,0-0.1-0.1-0.2-0.2c0-0.1,0-0.3,0.1-0.3C59.2,58.4,59.2,58.6,59.2,58.7z"
			/>
		<path class="st2" d="M59.6,34.2c0,0.4-0.1,0.7-0.5,1c-0.1-0.4,0.1-0.7,0.4-1C59.5,34.2,59.6,34.2,59.6,34.2z"/>
		<path class="st2" d="M58.3,37.2c-0.1,0-0.1,0-0.2,0c0-0.3,0.1-0.7,0.4-1C58.7,36.7,58.5,37,58.3,37.2z"/>
		<path class="st2" d="M57.2,39.3c0.1-0.2,0.1-0.6,0.5-0.8c0.1,0.4-0.1,0.7-0.3,1C57.2,39.5,57.2,39.4,57.2,39.3z"/>
		<path class="st2" d="M62.6,60.8c0.1,0,0.1,0,0.2,0c0,0.4-0.2,0.8-0.5,1c0,0-0.1,0-0.1,0C62.1,61.4,62.3,61.1,62.6,60.8z"/>
		<path class="st2" d="M59.4,40c0.1,0.1,0.1,0.3,0.2,0.4c0,0.3,0,0.6-0.2,0.9c-0.2-0.1-0.1-0.3-0.2-0.4C59.2,40.6,59.3,40.3,59.4,40
			z"/>
		<path class="st2" d="M60.5,34.3c0.1,0,0.1,0,0.2,0c0,0.4,0,0.7-0.2,1.1c-0.1,0-0.1,0-0.2,0C60.4,35,60.4,34.6,60.5,34.3z"/>
		<path class="st2" d="M59.6,34.2c0,0-0.1,0-0.1,0c0-0.3,0.1-0.6,0.4-0.8c0.1-0.1,0.2-0.1,0.2,0C60,33.7,59.9,34,59.6,34.2z"/>
		<path class="st2" d="M58.6,62.9c-0.2-0.2-0.3-0.4-0.2-0.7c0,0,0.2-0.1,0.2,0C58.7,62.4,58.9,62.7,58.6,62.9z"/>
		<path class="st2" d="M59.2,61c0.1,0,0.1,0,0.2,0c0.2,0.3,0.2,0.7,0.2,1.1c-0.1,0-0.1,0-0.2,0C59.3,61.7,59.2,61.4,59.2,61z"/>
		<path class="st2" d="M65.6,53.2c-0.1,0-0.2,0-0.2,0c0-0.3,0-0.7,0.3-1C65.9,52.6,65.6,52.9,65.6,53.2z"/>
		<path class="st2" d="M58.8,54.9c-0.1,0.1-0.2,0.3-0.2,0.4c0-0.3,0-0.7,0-1c0.1-0.1,0.2-0.3,0.2-0.4C58.8,54.3,58.8,54.6,58.8,54.9
			z"/>
		<path class="st2" d="M56,53.5c-0.1,0.1-0.1,0.1-0.2,0.2c0-0.3-0.1-0.6-0.2-1.1C56,53,55.9,53.3,56,53.5z"/>
		<path class="st2" d="M55.4,51.1c0.1,0,0.1,0,0.2,0c0,0.3,0.1,0.6,0.1,1C55.3,51.7,55.4,51.4,55.4,51.1z"/>
		<path class="st2" d="M62.9,43.1c0.1,0,0.1,0,0.2,0c0,0.4,0,0.8,0,1.2c-0.1,0.1-0.1,0.1-0.2,0.2C62.9,44,62.9,43.6,62.9,43.1z"/>
		<path class="st2" d="M65.4,42c0.1-0.1,0.1-0.1,0.2-0.2c0.1,0.4,0.1,0.7,0.2,1.1C65.5,42.6,65.4,42.3,65.4,42z"/>
		<path class="st2" d="M56.5,41.3c0.1,0.1,0.1,0.2,0.2,0.2c0,0.3-0.1,0.7-0.4,0.9C56.1,42,56.4,41.7,56.5,41.3z"/>
		<path class="st2" d="M59.3,40.9c0.1,0.1,0.1,0.3,0.2,0.4c0,0.3-0.1,0.7-0.1,1c-0.1-0.1-0.1-0.3-0.2-0.4
			C59.2,41.5,59.2,41.2,59.3,40.9z"/>
		<path class="st2" d="M63,40.8c-0.1,0.2-0.2,0.4-0.2,0.6c-0.1-0.3-0.2-0.6-0.1-0.9c0.1-0.1,0-0.4,0.2-0.4C63,40.3,63,40.6,63,40.8z
			"/>
		<path class="st2" d="M64.3,38.1c-0.3-0.3-0.4-0.7-0.1-1.1l0,0c0.1,0.3,0.2,0.6,0.3,0.9C64.5,37.9,64.4,38,64.3,38.1z"/>
		<path class="st2" d="M56.6,57.3c0-0.2-0.3-0.5,0-0.7c0.2-0.1,0.2,0.3,0.2,0.4C56.9,57.3,56.8,57.4,56.6,57.3z"/>
		<path class="st2" d="M63.9,57.4c0-0.2,0-0.5,0.3-0.4c0.3,0.2,0,0.4-0.1,0.7C63.9,57.7,63.8,57.7,63.9,57.4z"/>
		<path class="st2" d="M66,44c-0.1,0-0.1,0-0.2,0c0-0.2-0.2-0.5,0-0.7C66.1,43.5,66,43.8,66,44z"/>
		<path class="st2" d="M65.3,40.7c-0.1,0.1-0.1,0.1-0.2,0.2c0-0.2-0.3-0.6,0-0.7C65.3,40.1,65.3,40.5,65.3,40.7z"/>
		<path class="st2" d="M55.5,45.7c0.1,0,0.1,0,0.2,0c0,0.4-0.1,0.8-0.1,1.2c-0.1-0.1-0.1-0.2-0.2-0.2C55.4,46.3,55.4,46,55.5,45.7z"
			/>
		<path class="st2" d="M64.8,55.7c-0.1-0.1-0.1-0.2-0.2-0.2c0-0.2,0-0.6,0.3-0.5C65.2,55.1,64.9,55.4,64.8,55.7z"/>
		<path class="st2" d="M57.2,39.3c0.1,0.1,0.1,0.2,0.2,0.3c-0.1,0.2,0,0.5-0.3,0.4C56.8,39.8,57.2,39.5,57.2,39.3z"/>
		<path class="st2" d="M63.4,35c0.2,0.2,0.4,0.4,0.2,0.6C63.3,35.5,63.3,35.3,63.4,35z"/>
		<path class="st2" d="M57.8,60.7c0.4,0.2,0.5,0.5,0.3,0.6c-0.2,0.2-0.3-0.1-0.3-0.2C57.8,61,57.8,60.9,57.8,60.7z"/>
		<path class="st2" d="M64.3,38.1c0.1-0.1,0.1-0.1,0.2-0.2c0,0.3,0.3,0.6,0.2,0.9C64.4,38.6,64.4,38.3,64.3,38.1z"/>
		<path class="st2" d="M62.6,53.3l-0.1,0l-0.1,0c0-0.4,0.1-0.8,0.1-1.2c0.1,0.1,0.1,0.2,0.2,0.2C62.7,52.6,62.7,52.9,62.6,53.3z"/>
		<path class="st2" d="M60.6,63.4c0.3,0.4,0,0.5,0,0.8C60.2,63.8,60.5,63.7,60.6,63.4z"/>
		<path class="st2" d="M63.9,57.4c0.1,0.1,0.1,0.2,0.2,0.3c-0.1,0.2-0.2,0.4-0.2,0.6c-0.1-0.1-0.1-0.2-0.2-0.3
			C63.8,57.9,63.8,57.6,63.9,57.4z"/>
		<path class="st2" d="M56.6,57.3c0.1-0.1,0.1-0.2,0.2-0.3c0.1,0.2,0.1,0.4,0.2,0.6c-0.1,0.1-0.1,0.2-0.2,0.2
			C56.8,57.8,56.7,57.5,56.6,57.3z"/>
		<path class="st2" d="M62.8,40.1c-0.1,0.1-0.1,0.3-0.2,0.4c0-0.3,0-0.7,0-1c0.1,0,0.1,0,0.2,0C62.8,39.7,62.8,39.9,62.8,40.1z"/>
		<path class="st2" d="M60.1,33.4c-0.1,0-0.2,0-0.2,0c0.1-0.3,0.1-0.6,0.4-0.7C60.4,32.9,60.2,33.1,60.1,33.4z"/>
		<path class="st2" d="M66.1,46.1c0.1,0,0.1,0,0.2,0c0,0.3,0,0.5,0,0.8c-0.1,0.1-0.1,0.1-0.2,0.2C66.1,46.8,66.1,46.5,66.1,46.1z"/>
	</g>
	<path class="st3" d="M41.6,67c-2.7-1-4.8-2.9-6.8-5c-2.1-2.2-3.8-4.8-5.7-7.2c-0.7-0.9,0.1-2.8,1.2-3c3.3-0.7,6.6-1.5,10-1.8
		c5.2-0.4,9.5,1.1,13.1,4.9c2.1,2.2,4.1,4.5,5.8,7.1c0.4,0.5,1,0.9,1,1.7c0,1.4-0.5,2.1-1.9,2.4c-3.3,0.8-6.5,1.5-9.9,1.7
		C46,67.9,43.8,67.8,41.6,67z"/>
	<g>
		<path class="st2" d="M47.4,54.4c-0.7-0.3-1.5-0.5-2.2-0.8c-0.1-0.1-0.2-0.1-0.1-0.3c1,0.1,2,0.5,2.8,1
			C47.7,54.6,47.5,54.4,47.4,54.4z"/>
		<path class="st2" d="M47,57.7c-1.2-0.5-2.4-0.9-3.6-1.4c-0.2,0-0.2-0.1-0.1-0.2c1.5,0.4,3,1,4.4,1.6C47.4,58.2,47.2,57.8,47,57.7z
			"/>
		<path class="st2" d="M42.1,60.3c1.1,0.4,2.2,0.8,3.2,1.2c0.3,0.1,0.7-0.1,0.7,0.5c-1.5-0.5-3-1-4.4-1.7
			C41.8,59.9,42,60.2,42.1,60.3z"/>
		<path class="st2" d="M41.7,63.6c0.7,0.2,1.3,0.5,2,0.7c0.1,0.1,0.2,0.1,0.1,0.3c-0.9-0.1-1.7-0.4-2.4-0.9
			C41.5,63.5,41.6,63.6,41.7,63.6z"/>
		<path class="st2" d="M42.1,60.3c-0.2,0-0.3,0-0.5,0c-0.6-0.2-1.1-0.3-1.6-0.7c0.1-0.1,0.2-0.1,0.3-0.1
			C41,59.7,41.6,59.9,42.1,60.3z"/>
		<path class="st2" d="M32.6,53.8c-0.5-0.1-1.1-0.2-1.6-0.3c0-0.1,0-0.2,0-0.3c0.5,0,1.1,0.1,1.6,0.3C32.6,53.7,32.6,53.8,32.6,53.8
			z"/>
		<path class="st2" d="M35.5,54.3c-0.6-0.1-1.3-0.2-1.9-0.3c0-0.1,0-0.2,0-0.3c0.7,0.1,1.3,0.3,2,0.4C35.7,54.3,35.7,54.3,35.5,54.3
			z"/>
		<path class="st2" d="M42.2,52.8c0.7,0,1.4,0.2,2.1,0.4c0.1,0.1,0.1,0.2-0.1,0.2c-0.7-0.1-1.4-0.2-2.1-0.4
			C42,52.8,42,52.8,42.2,52.8z"/>
		<path class="st2" d="M43.2,56.1c0,0.1,0.1,0.2,0.1,0.2c-0.6,0-1.1-0.2-1.7-0.5c-0.1-0.1-0.2-0.1-0.1-0.3
			C42.2,55.6,42.7,55.9,43.2,56.1z"/>
		<path class="st2" d="M46.1,62c-0.2-0.2-0.5-0.3-0.7-0.5c0.7,0,1.3,0.3,1.9,0.5c0.1,0.2,0.3,0.1,0.3,0.3C47,62.4,46.6,62.2,46.1,62
			z"/>
		<path class="st2" d="M47,57.7c0.2,0,0.4,0,0.7,0c0.5,0.1,1,0.3,1.4,0.7c0,0.1-0.2,0.1-0.3,0.1C48.1,58.3,47.5,58.1,47,57.7z"/>
		<path class="st2" d="M38.2,54.7c0.7,0.2,1.5,0.4,2.2,0.6c0.1,0.1,0.1,0.2-0.1,0.2c-0.6,0.1-1.1-0.2-1.6-0.4
			C38.5,55,38.1,55.1,38.2,54.7z"/>
		<path class="st2" d="M57.5,63.1c-0.5-0.3-1-0.6-1.6-0.9c0-0.1,0.1-0.2,0.1-0.3c0.5,0.3,1.1,0.5,1.5,0.9
			C57.7,63,57.6,63.1,57.5,63.1z"/>
		<path class="st2" d="M57.4,64.5c0.6,0.1,1.2,0.2,1.8,0.3c0,0.1,0,0.2-0.1,0.3c-0.6-0.1-1.2-0.2-1.8-0.4
			C57.2,64.6,57.2,64.5,57.4,64.5z"/>
		<path class="st2" d="M43.8,64.6c0-0.1-0.1-0.2-0.1-0.3c0.7,0.2,1.3,0.4,2,0.5c0.1,0.1,0.1,0.2-0.1,0.2C45,65,44.4,64.8,43.8,64.6z
			"/>
		<path class="st2" d="M47.4,54.4c0.2,0,0.3,0,0.5,0c0.5,0.2,1.1,0.4,1.7,1.1C48.7,55.1,48,54.7,47.4,54.4z"/>
		<path class="st2" d="M36.3,57.7c-0.4-0.2-0.9-0.3-1.3-0.7c-0.1-0.1-0.1-0.2,0.1-0.2c0.6,0.3,1.1,0.6,1.7,0.8
			C36.7,58.1,36.5,57.9,36.3,57.7z"/>
		<path class="st2" d="M52.5,60.3c-0.6-0.3-1.1-0.6-1.7-0.8c0-0.1,0-0.2,0.1-0.2c0.6,0.2,1.2,0.4,1.7,0.9
			C52.7,60.3,52.7,60.3,52.5,60.3z"/>
		<path class="st2" d="M51.2,63.1c0.6,0.1,1.1,0.3,2,0.5c-0.8,0.2-1.2,0-1.6-0.1C51.3,63.5,51.1,63.5,51.2,63.1z"/>
		<path class="st2" d="M50.8,56c0.4,0.2,0.8,0.5,1.2,0.7c0,0.1-0.1,0.2-0.1,0.2c-0.4-0.2-0.8-0.4-1.1-0.8C50.6,56.1,50.6,56,50.8,56
			z"/>
		<path class="st2" d="M50.9,59.3c0,0.1,0,0.1-0.1,0.2c-0.3-0.1-0.7-0.2-0.9-0.5c-0.1-0.1-0.1-0.2,0.1-0.2
			C50.3,58.9,50.6,59,50.9,59.3z"/>
		<path class="st2" d="M50.8,65.6c-0.3,0.2-0.6,0.1-1.2-0.1C50.2,65.3,50.5,65.4,50.8,65.6z"/>
		<path class="st2" d="M39.2,62.6c-0.4-0.2-0.8-0.5-1.2-0.7c0-0.1,0.1-0.2,0.1-0.2c0.4,0.3,0.8,0.5,1.1,0.8
			C39.4,62.5,39.4,62.6,39.2,62.6z"/>
		<path class="st2" d="M52.9,57.4c0.3,0.2,0.6,0.3,0.6,0.8c-0.3-0.2-0.6-0.5-0.9-0.7C52.7,57.4,52.8,57.5,52.9,57.4z"/>
		<path class="st2" d="M48.3,62.4c0.4,0,0.7,0.1,1.1,0.2c0.1,0.2,0.3,0.1,0.3,0.4c-0.4,0.1-0.7-0.1-1.1-0.2
			C48.6,62.6,48.3,62.6,48.3,62.4z"/>
		<path class="st2" d="M52.5,60.3c0-0.1,0-0.1,0.1-0.2c0.5,0.2,1.1,0.4,1.5,0.8c0.1,0.1,0.1,0.2-0.1,0.2
			C53.5,60.9,53,60.6,52.5,60.3z"/>
		<path class="st2" d="M54,61.1c0-0.1,0-0.1,0.1-0.2c0.5,0.2,1,0.4,1.5,0.9C54.8,61.8,54.5,61.3,54,61.1z"/>
		<path class="st2" d="M57.9,61.8c0.4,0.2,0.7,0.5,0.9,1c-0.5-0.1-0.8-0.4-1-0.8C57.8,61.9,57.8,61.8,57.9,61.8z"/>
		<path class="st2" d="M35.5,54.3c0-0.1,0-0.1,0.1-0.2c0.5,0.1,1,0.2,1.5,0.3c0.1,0.1,0.1,0.2-0.1,0.2C36.5,54.7,36,54.5,35.5,54.3z
			"/>
		<path class="st2" d="M35.2,57L35.2,57l-0.1,0.2c-0.5-0.2-0.9-0.3-1.3-0.8C34.5,56.4,34.8,56.7,35.2,57z"/>
		<path class="st2" d="M32.2,55.3c0.5,0.2,1,0.4,1.4,0.9c-0.6-0.1-1-0.5-1.5-0.7C32.1,55.4,32.1,55.4,32.2,55.3z"/>
		<path class="st2" d="M31,52.5c0.6-0.3,1-0.3,1.6,0.1C32,52.6,31.6,52.7,31,52.5z"/>
		<path class="st2" d="M34.9,52.3c-0.3,0.4-0.6,0.4-1.1,0.1C34.2,52.1,34.6,52.3,34.9,52.3L34.9,52.3z"/>
		<path class="st2" d="M33.3,58c0.3,0.1,0.6,0.3,0.9,0.8c-0.5-0.1-0.8-0.3-0.9-0.7C33.2,58.1,33.2,58,33.3,58z"/>
		<path class="st2" d="M36.7,61c-0.3-0.2-0.6-0.3-0.9-0.9c0.6,0.3,0.9,0.5,1.2,0.8C36.9,60.9,36.8,61,36.7,61z"/>
		<path class="st2" d="M38.5,58.5c0.4,0.1,0.7,0.2,1,0.5c-0.2,0.2-0.4-0.1-0.7,0c-0.3-0.1-0.6-0.2-0.8-0.4
			C38.2,58.4,38.3,58.6,38.5,58.5z"/>
		<path class="st2" d="M48.1,65.2c0.4-0.1,0.8,0,1.3,0.2c-0.5,0.3-0.8,0.1-1.2,0.1C48.2,65.4,48.1,65.4,48.1,65.2z"/>
		<path class="st2" d="M56.3,64.5c-0.4-0.1-0.9-0.1-1.3-0.2c0.5-0.3,0.9-0.1,1.3,0.1C56.4,64.4,56.3,64.4,56.3,64.5z"/>
		<path class="st2" d="M39.2,62.6c0-0.1,0.1-0.1,0.1-0.2c0.5,0.2,0.9,0.3,1.3,0.7c0.1,0.1,0.1,0.2-0.1,0.2
			C40.1,63,39.6,62.8,39.2,62.6z"/>
		<path class="st2" d="M57.1,61.2c-0.3-0.1-0.6-0.3-0.8-0.7c0.5,0,0.7,0.2,0.9,0.6C57.2,61.1,57.2,61.2,57.1,61.2z"/>
		<path class="st2" d="M57.5,63.1c0-0.1,0-0.1,0.1-0.2c0.4,0.2,0.9,0.3,1.2,0.8C58.2,63.7,57.9,63.3,57.5,63.1z"/>
		<path class="st2" d="M30.1,54.3c-0.3-0.1-0.6-0.2-0.8-0.6c0.4-0.1,0.6,0.1,0.8,0.4C30.3,54.2,30.3,54.3,30.1,54.3z"/>
		<path class="st2" d="M52.5,65.5c0.3-0.1,0.7-0.1,1,0.1c-0.2,0.4-0.6,0.1-0.8,0.2C52.6,65.7,52.4,65.7,52.5,65.5z"/>
		<path class="st2" d="M40.1,52.7c-0.4,0-0.8,0-1.1-0.1c-0.1-0.1-0.1-0.1-0.1-0.2c0.4-0.1,0.8,0,1.1,0.1C40,52.5,40,52.6,40.1,52.7z
			"/>
		<path class="st2" d="M30.1,54.3c0-0.1,0.1-0.1,0.1-0.2c0.4,0.2,0.8,0.3,1.1,0.7c0.1,0.1,0.1,0.2-0.1,0.2
			C30.8,54.7,30.5,54.5,30.1,54.3z"/>
		<path class="st2" d="M38.8,59c0.2,0,0.4,0,0.7,0c0.3,0.1,0.6,0.3,0.9,0.4c-0.1,0-0.2,0.1-0.3,0.1C39.7,59.4,39.2,59.2,38.8,59z"/>
		<path class="st2" d="M55.1,59.2c0.2,0.2,0.6,0.3,0.6,0.7c-0.4,0-0.6-0.3-0.9-0.6C54.9,59.2,55,59.2,55.1,59.2z"/>
		<path class="st2" d="M55.3,65.7c-0.4,0.2-0.7,0.2-1-0.1C54.7,65.4,54.9,65.4,55.3,65.7z"/>
		<path class="st2" d="M48.4,62.4c0.1,0.1,0.2,0.2,0.3,0.4c-0.4-0.1-0.8-0.2-1.1-0.4c-0.1-0.1-0.2-0.2-0.3-0.3
			C47.6,62.1,48,62.2,48.4,62.4z"/>
		<path class="st2" d="M51.2,63.1c0.1,0.1,0.2,0.2,0.3,0.3c-0.3,0.1-0.6,0-0.9-0.2c-0.1-0.2-0.3-0.1-0.3-0.3
			C50.7,62.9,51,63,51.2,63.1z"/>
		<path class="st2" d="M54,63.7c0.1,0.1,0.3,0.1,0.2,0.3c0,0.1-0.2,0.1-0.3,0.1c-0.1,0-0.3-0.1-0.3-0.2C53.7,63.7,53.9,63.7,54,63.7
			z"/>
		<path class="st2" d="M30.9,55.8c0.3,0.1,0.7,0.3,0.8,0.8c-0.4-0.1-0.7-0.3-0.8-0.7C30.8,55.9,30.8,55.8,30.9,55.8z"/>
		<path class="st2" d="M33.3,58c0,0.1,0,0.1-0.1,0.2c-0.3-0.1-0.6-0.3-0.8-0.7C33,57.4,33.2,57.7,33.3,58z"/>
		<path class="st2" d="M35,59.7c-0.2-0.2-0.5-0.3-0.6-0.7c0.4,0,0.7,0.3,0.9,0.6C35.2,59.7,35.1,59.6,35,59.7z"/>
		<path class="st2" d="M57.1,61.2c0-0.1,0-0.1,0-0.2c0.4,0.2,0.7,0.4,0.8,0.8c0,0,0,0.1,0,0.1C57.5,61.8,57.2,61.6,57.1,61.2z"/>
		<path class="st2" d="M36.3,57.7c0.2,0,0.3,0,0.5-0.1c0.3,0.1,0.6,0.2,0.8,0.4c-0.1,0.2-0.3,0-0.5,0C36.8,58.1,36.5,58,36.3,57.7z"
			/>
		<path class="st2" d="M31.2,54.9c0-0.1,0-0.1,0.1-0.2c0.3,0.1,0.7,0.2,0.9,0.6c0,0.1,0,0.1-0.1,0.2C31.8,55.3,31.5,55.1,31.2,54.9z
			"/>
		<path class="st2" d="M30.9,55.8c0,0,0,0.1,0,0.1c-0.3-0.1-0.5-0.3-0.7-0.6c-0.1-0.1-0.1-0.2,0.1-0.2
			C30.5,55.3,30.8,55.4,30.9,55.8z"/>
		<path class="st2" d="M57.9,65.6c-0.2,0.2-0.5,0.2-0.7,0c0,0,0-0.2,0-0.2C57.5,65.4,57.7,65.2,57.9,65.6z"/>
		<path class="st2" d="M56.3,64.5c0-0.1,0-0.1,0.1-0.2c0.4-0.1,0.7,0,1,0.2c0,0.1,0,0.1-0.1,0.2C57,64.6,56.6,64.5,56.3,64.5z"/>
		<path class="st2" d="M50.8,56c0,0.1-0.1,0.1-0.1,0.2c-0.3-0.1-0.6-0.2-0.9-0.6C50.3,55.5,50.5,55.9,50.8,56z"/>
		<path class="st2" d="M50.4,63c0.1,0.1,0.2,0.2,0.3,0.3c-0.3-0.1-0.6-0.2-0.9-0.3c-0.1-0.1-0.2-0.2-0.3-0.4
			C49.7,62.8,50,62.9,50.4,63z"/>
		<path class="st2" d="M48.1,65.2c0,0.1,0.1,0.2,0.1,0.3c-0.3,0-0.6-0.1-1.1-0.2C47.6,65,47.9,65.2,48.1,65.2z"/>
		<path class="st2" d="M45.6,65c0-0.1,0-0.1,0.1-0.2c0.3,0,0.6,0.1,1,0.2C46.2,65.3,45.9,65.1,45.6,65z"/>
		<path class="st2" d="M40.3,55.4c0-0.1,0-0.1,0.1-0.2c0.4,0.1,0.8,0.2,1.2,0.4c0,0.1,0.1,0.2,0.1,0.3
			C41.2,55.7,40.8,55.6,40.3,55.4z"/>
		<path class="st2" d="M40.1,52.7c0-0.1-0.1-0.2-0.1-0.2c0.4,0,0.7,0.1,1.1,0.1C40.7,52.8,40.4,52.8,40.1,52.7z"/>
		<path class="st2" d="M36.7,61c0.1,0,0.2-0.1,0.3-0.1c0.3,0.1,0.6,0.3,0.8,0.6C37.3,61.5,37.1,61.1,36.7,61z"/>
		<path class="st2" d="M37.1,58.2c0.2,0,0.3,0,0.5,0c0.3,0.1,0.6,0.3,0.9,0.4c-0.2,0-0.3,0-0.5,0C37.7,58.4,37.4,58.3,37.1,58.2z"/>
		<path class="st2" d="M38.2,54.7c0.2,0.1,0.4,0.3,0.5,0.4c-0.3,0-0.6,0-0.9-0.2c-0.1-0.1-0.3-0.1-0.3-0.3
			C37.8,54.5,38,54.5,38.2,54.7z"/>
		<path class="st2" d="M36,52.5c-0.4,0.1-0.8,0.1-1.1-0.2l0,0c0.3,0,0.6,0,0.9,0C35.9,52.3,36,52.4,36,52.5z"/>
		<path class="st2" d="M52,65.8c-0.2-0.1-0.6,0.1-0.6-0.2c0-0.2,0.3-0.1,0.5-0.1C52,65.5,52,65.6,52,65.8z"/>
		<path class="st2" d="M54.3,58.9c-0.2-0.1-0.5-0.2-0.3-0.4c0.2-0.2,0.4,0.2,0.6,0.3C54.6,59,54.5,59.1,54.3,58.9z"/>
		<path class="st2" d="M42.2,52.8c0,0.1,0,0.1-0.1,0.2c-0.2-0.1-0.5,0.1-0.7-0.2C41.7,52.5,42,52.7,42.2,52.8z"/>
		<path class="st2" d="M38.8,52.4c0,0.1,0.1,0.2,0.1,0.2c-0.2-0.1-0.6,0.1-0.7-0.2C38.2,52.2,38.6,52.3,38.8,52.4z"/>
		<path class="st2" d="M40.5,63.3c0-0.1,0-0.1,0.1-0.2c0.4,0.2,0.8,0.3,1.1,0.5c-0.1,0-0.2,0.1-0.3,0.1
			C41.1,63.5,40.8,63.4,40.5,63.3z"/>
		<path class="st2" d="M52.9,57.4c-0.1,0-0.2,0.1-0.3,0.1c-0.2-0.1-0.6-0.2-0.3-0.4C52.5,56.9,52.7,57.3,52.9,57.4z"/>
		<path class="st2" d="M35,59.7c0.1,0,0.2-0.1,0.3-0.1c0.1,0.1,0.5,0.2,0.3,0.4C35.3,60.2,35.2,59.8,35,59.7z"/>
		<path class="st2" d="M32.8,52.4c0.2-0.2,0.5-0.2,0.7,0C33.3,52.7,33.1,52.6,32.8,52.4z"/>
		<path class="st2" d="M55.5,65.7c0.3-0.3,0.6-0.3,0.7-0.1c0.1,0.2-0.1,0.2-0.3,0.2C55.8,65.8,55.7,65.7,55.5,65.7z"/>
		<path class="st2" d="M36,52.5c0-0.1-0.1-0.2-0.1-0.3c0.3,0.1,0.6-0.1,0.9,0.1C36.6,52.6,36.3,52.5,36,52.5z"/>
		<path class="st2" d="M50,58.8L50,58.8L49.9,59c-0.4-0.2-0.7-0.3-1.1-0.5c0.1,0,0.2-0.1,0.3-0.1C49.3,58.5,49.6,58.7,50,58.8z"/>
		<path class="st2" d="M58.9,63.9c0.4-0.1,0.5,0.1,0.8,0.3C59.3,64.4,59.2,64.1,58.9,63.9z"/>
		<path class="st2" d="M54.3,58.9c0.1,0,0.2-0.1,0.3-0.1c0.2,0.1,0.3,0.3,0.5,0.4c-0.1,0-0.2,0.1-0.3,0.1
			C54.7,59.2,54.5,59,54.3,58.9z"/>
		<path class="st2" d="M52,65.8c-0.1-0.1-0.1-0.2-0.2-0.3c0.2,0,0.4,0,0.7,0c0.1,0.1,0.1,0.2,0.2,0.3C52.4,65.8,52.2,65.8,52,65.8z"
			/>
		<path class="st2" d="M37.5,54.5c0.1,0.1,0.2,0.2,0.3,0.3c-0.3-0.1-0.6-0.2-1-0.3c0-0.1,0-0.1,0.1-0.2
			C37.1,54.5,37.3,54.5,37.5,54.5z"/>
		<path class="st2" d="M30.2,55.1c0,0.1-0.1,0.2-0.1,0.2c-0.2-0.2-0.5-0.3-0.6-0.6C29.9,54.6,30,54.9,30.2,55.1z"/>
		<path class="st2" d="M44.2,53.3c0-0.1,0-0.1,0.1-0.2c0.3,0.1,0.5,0.1,0.8,0.2c0,0.1,0.1,0.2,0.1,0.3
			C44.9,53.5,44.6,53.4,44.2,53.3z"/>
	</g>
	<path class="st3" d="M56.5,83.1c-1.8,2.3-4.3,3.7-6.8,4.9c-2.7,1.4-5.7,2.1-8.6,3.2c-1,0.4-2.7-1-2.5-2.1c0.4-3.4,0.7-6.7,1.4-10.1
		c1.2-5.1,4-8.7,8.7-11c2.7-1.3,5.6-2.5,8.5-3.3c0.6-0.2,1.1-0.7,2-0.4c1.3,0.5,1.8,1.2,1.7,2.6c-0.3,3.3-0.6,6.7-1.5,10
		C58.8,79.1,58,81.2,56.5,83.1z"/>
	<g>
		<path class="st2" d="M46.3,73.7c-0.5,0.6-1,1.2-1.5,1.8c-0.1,0-0.2,0.1-0.3,0c0.4-0.9,1-1.7,1.9-2.3
			C46.6,73.4,46.3,73.5,46.3,73.7z"/>
		<path class="st2" d="M49.3,75.1c-0.8,1-1.6,2-2.4,3c0,0.2-0.2,0.2-0.3,0.1c0.9-1.3,1.9-2.5,2.9-3.7C49.9,74.8,49.5,74.9,49.3,75.1
			z"/>
		<path class="st2" d="M50.3,80.5c0.7-0.9,1.4-1.8,2.1-2.7c0.2-0.3,0.2-0.7,0.7-0.5c-0.9,1.3-1.9,2.5-3,3.7
			C49.8,80.7,50.1,80.6,50.3,80.5z"/>
		<path class="st2" d="M53.3,81.9c0.4-0.6,0.9-1.1,1.3-1.7c0.1,0,0.2-0.1,0.3-0.1c-0.4,0.8-0.9,1.5-1.6,2
			C53.2,82.1,53.3,82,53.3,81.9z"/>
		<path class="st2" d="M50.3,80.5c0,0.1-0.1,0.3-0.1,0.4c-0.3,0.5-0.7,1-1.2,1.3c-0.1-0.1,0-0.2,0-0.3
			C49.3,81.4,49.7,80.8,50.3,80.5z"/>
		<path class="st2" d="M41.2,87.5C41,88,40.7,88.5,40.4,89c-0.1,0-0.2-0.1-0.3-0.1c0.2-0.5,0.4-1,0.8-1.4
			C41.1,87.4,41.1,87.5,41.2,87.5z"/>
		<path class="st2" d="M42.6,84.9c-0.3,0.6-0.6,1.2-0.9,1.7c-0.1,0-0.2-0.1-0.3-0.1c0.3-0.6,0.7-1.2,1-1.7
			C42.6,84.7,42.6,84.8,42.6,84.9z"/>
		<path class="st2" d="M43.2,78.1c0.2-0.7,0.6-1.3,1-1.9c0.1-0.1,0.2,0,0.1,0.1c-0.3,0.6-0.7,1.2-1,1.9
			C43.2,78.3,43.1,78.2,43.2,78.1z"/>
		<path class="st2" d="M46.6,78.1c0.1,0,0.2,0,0.3-0.1c-0.2,0.6-0.6,1-1,1.4c-0.1,0-0.2,0.1-0.3,0.1C45.8,79,46.3,78.6,46.6,78.1z"
			/>
		<path class="st2" d="M53.1,77.2c-0.2,0.2-0.5,0.4-0.7,0.5c0.2-0.6,0.7-1.1,1.1-1.6c0.2,0,0.2-0.3,0.4-0.2
			C53.8,76.5,53.5,76.9,53.1,77.2z"/>
		<path class="st2" d="M49.3,75.1c0.1-0.2,0.2-0.4,0.2-0.6c0.3-0.4,0.6-0.8,1.1-1.1c0.1,0.1,0,0.2,0,0.3
			C50.3,74.2,49.9,74.7,49.3,75.1z"/>
		<path class="st2" d="M43.7,82.5c0.4-0.6,0.8-1.3,1.2-1.9c0.1-0.1,0.2,0,0.2,0.1c-0.1,0.6-0.5,0.9-0.8,1.4
			C44.1,82.3,44.1,82.7,43.7,82.5z"/>
		<path class="st2" d="M57.7,66.8c-0.4,0.4-0.9,0.8-1.3,1.2c-0.1-0.1-0.1-0.1-0.2-0.2c0.5-0.4,0.8-0.9,1.4-1.1
			C57.7,66.6,57.7,66.6,57.7,66.8z"/>
		<path class="st2" d="M59,67.3c0.3-0.5,0.5-1.1,0.8-1.6c0.1,0,0.2,0.1,0.2,0.1c-0.3,0.5-0.6,1-0.9,1.6C59,67.5,58.9,67.4,59,67.3z"
			/>
		<path class="st2" d="M54.9,80.2c-0.1,0-0.2,0-0.3,0.1c0.4-0.6,0.7-1.2,1.1-1.7c0.1-0.1,0.2,0,0.1,0.1
			C55.7,79.3,55.3,79.7,54.9,80.2z"/>
		<path class="st2" d="M46.3,73.7c0-0.2,0.1-0.3,0.1-0.5c0.4-0.4,0.7-0.9,1.6-1.3C47.3,72.7,46.8,73.2,46.3,73.7z"/>
		<path class="st2" d="M46.1,85.2c-0.3,0.4-0.6,0.8-1.1,1c-0.1,0.1-0.2,0-0.1-0.1c0.4-0.4,0.9-0.9,1.3-1.3
			C46.5,85,46.2,85.1,46.1,85.2z"/>
		<path class="st2" d="M53.5,70.6c-0.4,0.4-0.9,0.9-1.3,1.3c-0.1,0-0.1,0-0.2-0.1c0.4-0.5,0.8-1,1.3-1.3
			C53.5,70.4,53.6,70.5,53.5,70.6z"/>
		<path class="st2" d="M55.8,72.7c0.3-0.5,0.6-1,1.1-1.7c0,0.8-0.4,1.1-0.6,1.5C56.2,72.7,56.1,72.9,55.8,72.7z"/>
		<path class="st2" d="M48.9,70.9c0.4-0.3,0.7-0.6,1.1-0.9c0.1,0.1,0.1,0.1,0.2,0.2c-0.3,0.3-0.6,0.6-1.1,0.8
			C48.9,71.1,48.8,71.1,48.9,70.9z"/>
		<path class="st2" d="M52.1,71.8c0.1,0,0.1,0.1,0.2,0.1c-0.2,0.3-0.4,0.6-0.8,0.7c-0.1,0.1-0.2,0-0.2-0.1
			C51.5,72.3,51.7,72,52.1,71.8z"/>
		<path class="st2" d="M58,73.9c0.1,0.4-0.1,0.6-0.4,1.1C57.5,74.3,57.7,74.1,58,73.9z"/>
		<path class="st2" d="M51.5,84c-0.3,0.3-0.7,0.6-1,0.9c-0.1-0.1-0.1-0.1-0.2-0.2c0.4-0.3,0.7-0.6,1.1-0.8
			C51.5,83.8,51.6,83.8,51.5,84z"/>
		<path class="st2" d="M50.9,69.4c0.3-0.2,0.5-0.5,1-0.4c-0.3,0.2-0.6,0.5-1,0.7C50.8,69.6,50.9,69.5,50.9,69.4z"/>
		<path class="st2" d="M54.2,75.2c0.1-0.4,0.3-0.7,0.6-1c0.2,0,0.2-0.3,0.4-0.2c-0.1,0.4-0.3,0.7-0.6,1C54.5,75,54.4,75.3,54.2,75.2
			z"/>
		<path class="st2" d="M53.5,70.6c0,0-0.1-0.1-0.1-0.1c0.3-0.5,0.7-0.9,1.2-1.2c0.1-0.1,0.2,0,0.1,0.1
			C54.3,69.9,53.9,70.2,53.5,70.6z"/>
		<path class="st2" d="M54.7,69.5c0,0-0.1-0.1-0.1-0.1c0.3-0.4,0.7-0.8,1.3-1.1C55.6,68.9,55.1,69.1,54.7,69.5z"/>
		<path class="st2" d="M56.6,65.9c0.3-0.4,0.7-0.5,1.2-0.6c-0.3,0.4-0.6,0.6-1.1,0.7C56.6,66,56.6,66,56.6,65.9z"/>
		<path class="st2" d="M42.6,84.9c0,0-0.1-0.1-0.1-0.1c0.3-0.4,0.5-0.9,0.8-1.3c0.1-0.1,0.2,0,0.1,0.1
			C43.2,84.1,42.9,84.5,42.6,84.9z"/>
		<path class="st2" d="M45,86L45,86l0.1,0.1c-0.3,0.4-0.6,0.8-1.2,1C44.2,86.6,44.7,86.4,45,86z"/>
		<path class="st2" d="M42.5,88.4c0.3-0.4,0.7-0.9,1.3-1.1c-0.3,0.6-0.8,0.8-1.2,1.2C42.6,88.5,42.5,88.5,42.5,88.4z"/>
		<path class="st2" d="M39.4,88.7c-0.1-0.7,0-1.1,0.6-1.5C39.9,87.8,39.8,88.2,39.4,88.7z"/>
		<path class="st2" d="M40.4,84.9c0.3,0.4,0.2,0.7-0.2,1.1C40,85.5,40.3,85.2,40.4,84.9L40.4,84.9z"/>
		<path class="st2" d="M45.4,88.1c0.2-0.3,0.5-0.5,1.1-0.6c-0.3,0.4-0.5,0.6-0.9,0.7C45.4,88.3,45.4,88.2,45.4,88.1z"/>
		<path class="st2" d="M49.2,85.8c-0.3,0.2-0.5,0.5-1.1,0.6c0.5-0.4,0.7-0.7,1.1-0.8C49.3,85.6,49.3,85.7,49.2,85.8z"/>
		<path class="st2" d="M47.5,83.4c0.2-0.3,0.4-0.6,0.8-0.8c0.1,0.3-0.2,0.4-0.2,0.6c-0.2,0.3-0.4,0.5-0.7,0.6
			C47.3,83.7,47.5,83.6,47.5,83.4z"/>
		<path class="st2" d="M56.8,76.3c0-0.4,0.3-0.7,0.6-1.2c0.2,0.6-0.1,0.8-0.3,1.1C57,76.3,57,76.4,56.8,76.3z"/>
		<path class="st2" d="M58.6,68.3c-0.2,0.4-0.4,0.8-0.6,1.2c-0.1-0.6,0.2-0.9,0.5-1.3C58.6,68.2,58.6,68.2,58.6,68.3z"/>
		<path class="st2" d="M51.5,84c0,0-0.1-0.1-0.1-0.1c0.3-0.4,0.6-0.8,1.1-1c0.1-0.1,0.2,0,0.1,0.1C52.3,83.3,51.9,83.6,51.5,84z"/>
		<path class="st2" d="M55.8,66.5c-0.2,0.3-0.5,0.5-0.9,0.5c0.1-0.5,0.4-0.6,0.8-0.6C55.7,66.4,55.7,66.5,55.8,66.5z"/>
		<path class="st2" d="M57.7,66.8c0,0-0.1-0.1-0.1-0.1c0.3-0.4,0.6-0.8,1.1-0.9C58.5,66.3,58,66.4,57.7,66.8z"/>
		<path class="st2" d="M40.9,90.1c-0.2,0.3-0.4,0.5-0.8,0.5c0-0.4,0.3-0.6,0.6-0.7C40.9,89.9,40.9,89.9,40.9,90.1z"/>
		<path class="st2" d="M58.5,72.2c0-0.3,0.1-0.7,0.4-0.9c0.3,0.3-0.1,0.6-0.1,0.8C58.7,72.2,58.6,72.3,58.5,72.2z"/>
		<path class="st2" d="M42.4,80.1c-0.1,0.4-0.3,0.7-0.4,1.1c-0.1,0.1-0.2,0.1-0.3,0.1c0-0.4,0.2-0.7,0.4-1.1
			C42.2,80.1,42.3,80.1,42.4,80.1z"/>
		<path class="st2" d="M40.9,90.1c-0.1,0-0.1-0.1-0.2-0.1c0.3-0.3,0.5-0.7,1-0.8c0.1-0.1,0.2,0,0.2,0.1
			C41.5,89.5,41.2,89.8,40.9,90.1z"/>
		<path class="st2" d="M48,83.2c0.1-0.2,0.2-0.4,0.2-0.6c0.2-0.2,0.4-0.5,0.7-0.7c0,0.1,0,0.2,0,0.3C48.7,82.5,48.4,82.9,48,83.2z"
			/>
		<path class="st2" d="M53.3,67.8c0.3-0.1,0.4-0.4,0.8-0.3c-0.2,0.4-0.5,0.5-0.8,0.6C53.1,68,53.2,67.9,53.3,67.8z"/>
		<path class="st2" d="M59.5,69.6c0,0.5,0,0.7-0.4,0.9C59,70.1,59.1,69.9,59.5,69.6z"/>
		<path class="st2" d="M54.2,75.2c0.1-0.1,0.3-0.1,0.4-0.2c-0.2,0.3-0.5,0.6-0.7,1c-0.1,0.1-0.3,0.1-0.4,0.2
			C53.7,75.8,54,75.5,54.2,75.2z"/>
		<path class="st2" d="M55.8,72.7c0.1-0.1,0.3-0.1,0.4-0.2c0,0.3-0.2,0.6-0.4,0.8c-0.2,0-0.2,0.3-0.4,0.2
			C55.4,73.2,55.6,72.9,55.8,72.7z"/>
		<path class="st2" d="M57.2,70.2c0.1-0.1,0.2-0.3,0.3-0.1c0,0,0,0.2,0,0.3c-0.1,0.1-0.2,0.3-0.3,0.2C57.1,70.5,57.2,70.3,57.2,70.2
			z"/>
		<path class="st2" d="M42.5,89.8c0.2-0.3,0.5-0.5,1-0.5c-0.2,0.4-0.5,0.5-0.9,0.5C42.6,89.9,42.5,89.8,42.5,89.8z"/>
		<path class="st2" d="M45.4,88.1c0,0,0.1,0.1,0.1,0.1c-0.2,0.3-0.5,0.5-0.9,0.5C44.7,88.3,45.1,88.2,45.4,88.1z"/>
		<path class="st2" d="M47.5,87.1c-0.2,0.1-0.4,0.4-0.8,0.3c0.2-0.4,0.5-0.5,0.8-0.7C47.6,86.9,47.5,87,47.5,87.1z"/>
		<path class="st2" d="M55.8,66.5c0,0-0.1-0.1-0.1-0.1c0.3-0.3,0.6-0.5,1-0.5c0,0,0.1,0.1,0.1,0.1C56.5,66.3,56.2,66.5,55.8,66.5z"
			/>
		<path class="st2" d="M46.1,85.2c0-0.2,0.1-0.3,0.1-0.5c0.2-0.3,0.4-0.5,0.7-0.6c0.1,0.2-0.1,0.3-0.1,0.5
			C46.6,84.9,46.4,85.1,46.1,85.2z"/>
		<path class="st2" d="M41.8,89.2c-0.1,0-0.1-0.1-0.2-0.1c0.2-0.3,0.4-0.6,0.8-0.7c0,0,0.1,0.1,0.1,0.1C42.4,88.7,42.1,89,41.8,89.2
			z"/>
		<path class="st2" d="M42.5,89.8c0,0,0.1,0,0.1,0.1c-0.2,0.3-0.5,0.4-0.8,0.5c-0.2,0.1-0.2,0-0.2-0.2C41.9,90,42.2,89.8,42.5,89.8z
			"/>
		<path class="st2" d="M60.2,67.1c0.1,0.3,0,0.5-0.2,0.7c0,0-0.2,0-0.2-0.1C59.9,67.5,59.8,67.2,60.2,67.1z"/>
		<path class="st2" d="M58.6,68.3c0,0-0.1-0.1-0.1-0.1c0-0.4,0.3-0.7,0.5-0.9c0,0,0.1,0.1,0.1,0.1C59,67.7,58.8,68,58.6,68.3z"/>
		<path class="st2" d="M48.9,70.9c0.1,0,0.1,0.1,0.2,0.1c-0.2,0.2-0.4,0.5-0.8,0.6C48.3,71.2,48.7,71.2,48.9,70.9z"/>
		<path class="st2" d="M55.4,73.5c0.1-0.1,0.3-0.1,0.4-0.2c-0.2,0.3-0.4,0.5-0.6,0.8c-0.1,0.1-0.3,0.1-0.4,0.2
			C55,74,55.2,73.7,55.4,73.5z"/>
		<path class="st2" d="M56.8,76.3c0.1,0,0.2,0,0.3-0.1c-0.1,0.3-0.3,0.5-0.5,1C56.5,76.7,56.7,76.5,56.8,76.3z"/>
		<path class="st2" d="M55.8,78.6c0,0-0.1-0.1-0.1-0.1c0.1-0.3,0.3-0.5,0.5-0.9C56.4,78.2,56,78.4,55.8,78.6z"/>
		<path class="st2" d="M45.1,80.7c-0.1,0-0.1-0.1-0.2-0.1c0.2-0.3,0.5-0.7,0.7-1c0.1,0,0.2,0,0.3-0.1C45.7,79.9,45.4,80.3,45.1,80.7
			z"/>
		<path class="st2" d="M42.4,80.1c-0.1,0-0.2,0-0.3,0.1c0.1-0.3,0.3-0.7,0.4-1C42.7,79.5,42.6,79.8,42.4,80.1z"/>
		<path class="st2" d="M49.2,85.8c0-0.1,0-0.2,0-0.3c0.2-0.2,0.4-0.5,0.8-0.5C50,85.5,49.5,85.6,49.2,85.8z"/>
		<path class="st2" d="M46.7,84.6c0-0.2,0.1-0.3,0.1-0.5c0.2-0.2,0.4-0.5,0.7-0.7c0,0.2-0.1,0.3-0.1,0.5
			C47.2,84.1,46.9,84.4,46.7,84.6z"/>
		<path class="st2" d="M43.7,82.5c0.2-0.1,0.4-0.3,0.6-0.4c-0.1,0.3-0.2,0.6-0.5,0.8c-0.2,0-0.2,0.3-0.4,0.2
			C43.4,82.8,43.5,82.6,43.7,82.5z"/>
		<path class="st2" d="M41,83.9c0,0.4-0.1,0.8-0.6,1l0,0c0.1-0.3,0.2-0.6,0.3-0.9C40.8,83.9,40.9,83.9,41,83.9z"/>
		<path class="st2" d="M58.5,72.8c-0.1,0.2-0.1,0.6-0.4,0.6c-0.2-0.1,0-0.3,0.1-0.5C58.3,72.7,58.4,72.7,58.5,72.8z"/>
		<path class="st2" d="M52.7,68.5c-0.1,0.1-0.3,0.4-0.5,0.2c-0.2-0.3,0.3-0.3,0.5-0.5C52.9,68.2,52.9,68.3,52.7,68.5z"/>
		<path class="st2" d="M43.2,78.1c0.1,0,0.1,0.1,0.2,0.1c-0.1,0.2-0.1,0.5-0.4,0.6C42.8,78.5,43,78.3,43.2,78.1z"/>
		<path class="st2" d="M41.7,81.2c0.1,0,0.2,0,0.3-0.1c-0.1,0.2-0.1,0.6-0.4,0.6C41.4,81.7,41.6,81.4,41.7,81.2z"/>
		<path class="st2" d="M52.6,83c0,0-0.1-0.1-0.1-0.1c0.3-0.3,0.5-0.6,0.8-0.9c0,0.1,0,0.2,0,0.3C53.1,82.5,52.8,82.7,52.6,83z"/>
		<path class="st2" d="M50.9,69.4c0,0.1,0,0.2,0,0.3c-0.2,0.1-0.4,0.5-0.5,0.2C50.3,69.6,50.7,69.5,50.9,69.4z"/>
		<path class="st2" d="M47.5,87.1c0-0.1,0-0.2,0-0.3c0.1-0.1,0.3-0.4,0.5-0.2C48.1,86.9,47.6,86.9,47.5,87.1z"/>
		<path class="st2" d="M39.9,86.9c-0.1-0.3-0.1-0.5,0.2-0.6C40.3,86.6,40.1,86.7,39.9,86.9z"/>
		<path class="st2" d="M59.5,69.4c-0.2-0.4-0.1-0.7,0.1-0.7c0.3-0.1,0.2,0.2,0.1,0.4C59.7,69.2,59.7,69.2,59.5,69.4z"/>
		<path class="st2" d="M41,83.9c-0.1,0-0.2,0-0.3,0c0.1-0.3,0.1-0.6,0.4-0.8C41.3,83.4,41.1,83.7,41,83.9z"/>
		<path class="st2" d="M51.3,72.6L51.3,72.6l0.2,0.1c-0.3,0.3-0.5,0.6-0.8,0.9c0-0.1,0-0.2,0-0.3C50.8,73.1,51.1,72.8,51.3,72.6z"/>
		<path class="st2" d="M58.9,65.6c0-0.5,0.3-0.5,0.5-0.6C59.5,65.4,59.1,65.4,58.9,65.6z"/>
		<path class="st2" d="M52.7,68.5c0-0.1,0-0.2,0-0.3c0.2-0.1,0.4-0.2,0.5-0.4c0,0.1,0,0.2,0,0.3C53.1,68.2,52.9,68.3,52.7,68.5z"/>
		<path class="st2" d="M58.5,72.8c-0.1,0-0.2,0.1-0.3,0.1c0.1-0.2,0.1-0.4,0.2-0.6c0.1,0,0.2,0,0.3-0.1
			C58.7,72.4,58.6,72.6,58.5,72.8z"/>
		<path class="st2" d="M43.4,83.1c0.1-0.1,0.3-0.1,0.4-0.2c-0.2,0.3-0.4,0.5-0.6,0.8c0,0-0.1-0.1-0.1-0.1
			C43.2,83.4,43.3,83.3,43.4,83.1z"/>
		<path class="st2" d="M41.6,90.2c0.1,0.1,0.1,0.1,0.2,0.2c-0.2,0.2-0.4,0.4-0.8,0.3C41.1,90.3,41.4,90.3,41.6,90.2z"/>
		<path class="st2" d="M44.3,76.3c0,0-0.1-0.1-0.1-0.1c0.1-0.2,0.3-0.4,0.4-0.7c0.1,0,0.2,0,0.3,0C44.7,75.8,44.5,76,44.3,76.3z"/>
	</g>
	<path class="st3" d="M76.4,73.8c1.6,2.4,2.2,5.2,2.6,8c0.4,3,0.3,6.1,0.4,9.1c0,1.1-1.7,2.2-2.8,1.8c-3.1-1.4-6.2-2.7-9.1-4.5
		c-4.4-2.7-7.1-6.5-7.8-11.7c-0.4-3-0.6-6.1-0.5-9.1c0-0.6-0.3-1.3,0.2-2c0.9-1.1,1.6-1.3,3-0.8c3.1,1.3,6.2,2.6,9,4.5
		C73.3,70.5,75.1,71.9,76.4,73.8z"/>
	<g>
		<path class="st2" d="M64.3,80.6c0.4,0.7,0.9,1.3,1.3,2c0,0.1,0.1,0.2-0.1,0.3c-0.8-0.7-1.3-1.5-1.7-2.5
			C64.1,80.3,64.2,80.5,64.3,80.6z"/>
		<path class="st2" d="M66.6,78.2c0.7,1.1,1.4,2.2,2.1,3.2c0.2,0.1,0.1,0.2,0,0.3c-1-1.2-1.8-2.6-2.6-3.9
			C66.5,77.6,66.4,78,66.6,78.2z"/>
		<path class="st2" d="M72,79c-0.6-1-1.3-1.9-1.9-2.9c-0.2-0.2-0.6-0.4-0.3-0.8c0.9,1.3,1.8,2.6,2.6,4C72.1,79.4,72.1,79.2,72,79z"
			/>
		<path class="st2" d="M74.3,76.6c-0.4-0.6-0.8-1.2-1.2-1.8c0-0.1-0.1-0.2,0-0.3c0.7,0.6,1.1,1.3,1.4,2.1
			C74.5,76.7,74.4,76.6,74.3,76.6z"/>
		<path class="st2" d="M72,79c0.1,0.1,0.3,0.2,0.4,0.3c0.4,0.5,0.7,0.9,0.9,1.5c-0.1,0.1-0.2,0-0.3-0.1C72.6,80.1,72.2,79.6,72,79z"
			/>
		<path class="st2" d="M75.9,89.8c0.4,0.4,0.7,0.8,1.1,1.2c-0.1,0.1-0.1,0.1-0.2,0.2c-0.4-0.3-0.8-0.7-1.1-1.2
			C75.8,89.9,75.9,89.8,75.9,89.8z"/>
		<path class="st2" d="M73.9,87.7c0.5,0.5,0.9,0.9,1.4,1.4c-0.1,0.1-0.1,0.1-0.2,0.2c-0.4-0.5-0.9-1-1.3-1.5
			C73.7,87.6,73.7,87.6,73.9,87.7z"/>
		<path class="st2" d="M67.5,85c-0.6-0.4-1-1-1.5-1.5c0-0.2,0-0.2,0.2-0.1c0.5,0.5,1,1,1.5,1.5C67.7,85,67.7,85.1,67.5,85z"/>
		<path class="st2" d="M68.7,81.7c0-0.1,0-0.2,0-0.3c0.5,0.4,0.8,0.8,1.1,1.3c0,0.1,0.1,0.2,0,0.3C69.2,82.7,69,82.2,68.7,81.7z"/>
		<path class="st2" d="M69.8,75.3c0.1,0.3,0.2,0.5,0.3,0.8c-0.5-0.4-0.9-1-1.2-1.5c0-0.2-0.2-0.3-0.1-0.5
			C69.3,74.4,69.5,74.8,69.8,75.3z"/>
		<path class="st2" d="M66.6,78.2c-0.2-0.1-0.4-0.3-0.5-0.4c-0.3-0.4-0.6-0.8-0.7-1.3c0.1-0.1,0.2,0,0.3,0.1
			C66,77,66.4,77.5,66.6,78.2z"/>
		<path class="st2" d="M71.9,85.8c-0.5-0.6-1-1.2-1.4-1.8c0-0.2,0-0.2,0.2-0.1c0.5,0.3,0.7,0.8,1.1,1.2
			C71.8,85.4,72.2,85.5,71.9,85.8z"/>
		<path class="st2" d="M61.2,67.7c0.3,0.5,0.5,1.1,0.8,1.6c-0.1,0-0.2,0.1-0.3,0.1c-0.2-0.5-0.6-1-0.7-1.6
			C61.1,67.6,61.1,67.6,61.2,67.7z"/>
		<path class="st2" d="M62.1,66.6c-0.4-0.4-0.8-0.8-1.3-1.2c0.1-0.1,0.1-0.1,0.2-0.2c0.4,0.4,0.8,0.9,1.2,1.3
			C62.3,66.7,62.3,66.7,62.1,66.6z"/>
		<path class="st2" d="M73.2,74.5c0,0.1,0,0.2,0,0.3c-0.4-0.5-0.9-1.1-1.3-1.6c0-0.2,0-0.2,0.2-0.1C72.5,73.4,72.8,74,73.2,74.5z"/>
		<path class="st2" d="M64.3,80.6c-0.1-0.1-0.3-0.2-0.4-0.2c-0.3-0.5-0.7-0.9-0.7-1.9C63.7,79.4,64,80,64.3,80.6z"/>
		<path class="st2" d="M75.2,84.4c0.2,0.4,0.5,0.8,0.6,1.3c0,0.2,0,0.2-0.2,0.1c-0.3-0.6-0.6-1.1-0.9-1.7
			C75.1,84,75.1,84.2,75.2,84.4z"/>
		<path class="st2" d="M63.7,72.8c0.3,0.6,0.6,1.1,0.9,1.7c0,0.1-0.1,0.1-0.2,0.1c-0.3-0.5-0.7-1-0.8-1.7
			C63.5,72.8,63.5,72.7,63.7,72.8z"/>
		<path class="st2" d="M66.3,71.3c-0.4-0.4-0.7-0.9-1.3-1.5c0.8,0.3,1,0.7,1.2,1.1C66.4,71,66.6,71.1,66.3,71.3z"/>
		<path class="st2" d="M62.5,77.3c-0.2-0.4-0.3-0.9-0.5-1.3c0.1,0,0.2-0.1,0.2-0.1c0.2,0.4,0.4,0.8,0.5,1.3
			C62.7,77.4,62.6,77.4,62.5,77.3z"/>
		<path class="st2" d="M64.3,74.6c0.1,0,0.1-0.1,0.2-0.1c0.2,0.3,0.4,0.6,0.5,1c0,0.2,0,0.2-0.2,0.1C64.6,75.3,64.4,75,64.3,74.6z"
			/>
		<path class="st2" d="M68.1,69.6c0.4,0,0.6,0.3,0.9,0.7C68.4,70.2,68.2,69.9,68.1,69.6z"/>
		<path class="st2" d="M75.7,78.8c0.2,0.4,0.4,0.8,0.6,1.3c-0.1,0-0.2,0.1-0.3,0.1c-0.2-0.4-0.3-0.9-0.5-1.3
			C75.5,78.8,75.6,78.7,75.7,78.8z"/>
		<path class="st2" d="M61.6,74.9c-0.1-0.3-0.3-0.6,0-1c0.1,0.4,0.2,0.7,0.3,1.1C61.8,75.1,61.7,75,61.6,74.9z"/>
		<path class="st2" d="M68.2,73.6c-0.3-0.2-0.6-0.5-0.7-0.8c0-0.2-0.2-0.3-0.1-0.5c0.3,0.2,0.6,0.5,0.7,0.8
			C68.1,73.3,68.4,73.4,68.2,73.6z"/>
		<path class="st2" d="M63.7,72.8c-0.1,0-0.1,0.1-0.2,0.1c-0.3-0.5-0.6-0.9-0.7-1.5c0-0.2,0-0.2,0.2-0.1
			C63.2,71.8,63.4,72.3,63.7,72.8z"/>
		<path class="st2" d="M62.9,71.3c-0.1,0-0.1,0.1-0.2,0.1c-0.3-0.4-0.6-0.9-0.7-1.6C62.6,70.3,62.7,70.9,62.9,71.3z"/>
		<path class="st2" d="M60.1,68.4c-0.2-0.4-0.3-0.9-0.2-1.3c0.3,0.4,0.4,0.8,0.3,1.2C60.2,68.5,60.2,68.5,60.1,68.4z"/>
		<path class="st2" d="M73.9,87.7c-0.1,0-0.1,0.1-0.2,0.1c-0.3-0.4-0.7-0.7-1-1.1c0-0.2,0-0.2,0.2-0.1
			C73.3,86.8,73.6,87.2,73.9,87.7z"/>
		<path class="st2" d="M75.6,85.7L75.6,85.7l0.2-0.1c0.3,0.4,0.6,0.8,0.6,1.4C75.9,86.6,75.9,86.1,75.6,85.7z"/>
		<path class="st2" d="M77.1,88.8c-0.3-0.5-0.6-0.9-0.6-1.6c0.5,0.4,0.5,1,0.8,1.5C77.3,88.8,77.2,88.8,77.1,88.8z"/>
		<path class="st2" d="M76.5,91.8c-0.7-0.2-1-0.4-1.2-1C75.7,91.1,76.1,91.3,76.5,91.8z"/>
		<path class="st2" d="M73.1,89.7c0.5-0.2,0.8,0,1,0.5C73.6,90.3,73.4,89.9,73.1,89.7L73.1,89.7z"/>
		<path class="st2" d="M77.8,86c-0.2-0.3-0.3-0.6-0.2-1.2c0.3,0.4,0.4,0.7,0.4,1.1C77.9,86,77.9,86,77.8,86z"/>
		<path class="st2" d="M76.8,81.6c0.1,0.3,0.3,0.6,0.2,1.3c-0.3-0.6-0.5-0.9-0.5-1.3C76.6,81.5,76.7,81.5,76.8,81.6z"/>
		<path class="st2" d="M73.9,82.5c-0.3-0.3-0.4-0.6-0.5-1c0.3,0,0.3,0.3,0.5,0.4c0.2,0.2,0.4,0.5,0.4,0.8
			C74.1,82.8,74.1,82.6,73.9,82.5z"/>
		<path class="st2" d="M70.1,71.4c-0.4-0.2-0.6-0.5-1-0.9c0.6,0,0.7,0.4,1,0.6C70.1,71.2,70.2,71.3,70.1,71.4z"/>
		<path class="st2" d="M63,67.3c0.3,0.3,0.6,0.6,0.9,0.9c-0.6,0-0.8-0.5-1.1-0.8C62.9,67.3,62.9,67.2,63,67.3z"/>
		<path class="st2" d="M75.7,78.8c-0.1,0-0.1,0.1-0.2,0.1c-0.3-0.4-0.5-0.8-0.6-1.3c0-0.2,0-0.2,0.2-0.1
			C75.3,78,75.5,78.4,75.7,78.8z"/>
		<path class="st2" d="M60.4,69.5c0.2,0.3,0.3,0.6,0.2,1.1c-0.4-0.3-0.4-0.6-0.3-1C60.3,69.5,60.4,69.4,60.4,69.5z"/>
		<path class="st2" d="M61.2,67.7c-0.1,0-0.1,0.1-0.2,0.1c-0.3-0.4-0.5-0.8-0.5-1.3C61,66.8,61,67.3,61.2,67.7z"/>
		<path class="st2" d="M78.2,90.9c0.2,0.3,0.3,0.5,0.3,0.9c-0.4-0.1-0.4-0.5-0.5-0.8C78,90.8,78.1,90.8,78.2,90.9z"/>
		<path class="st2" d="M66.7,68.6c-0.3-0.1-0.6-0.3-0.7-0.7c0.4-0.2,0.5,0.2,0.8,0.3C66.7,68.4,66.8,68.5,66.7,68.6z"/>
		<path class="st2" d="M69.2,86.3c0.3,0.2,0.6,0.5,0.9,0.7c0,0.1,0,0.2,0,0.3c-0.4-0.1-0.6-0.5-0.9-0.7
			C69.1,86.5,69.1,86.4,69.2,86.3z"/>
		<path class="st2" d="M78.2,90.9c-0.1,0-0.1,0.1-0.2,0.1c-0.2-0.4-0.5-0.7-0.5-1.2c0-0.2,0-0.2,0.2-0.1
			C77.9,90.1,78,90.5,78.2,90.9z"/>
		<path class="st2" d="M73.9,81.9c-0.2-0.1-0.3-0.3-0.5-0.4c-0.2-0.3-0.3-0.6-0.5-0.9c0.1,0,0.2,0.1,0.3,0.1
			C73.5,81.1,73.7,81.5,73.9,81.9z"/>
		<path class="st2" d="M60.8,72.2c0-0.3-0.3-0.5,0-0.9c0.3,0.3,0.3,0.6,0.4,1C61,72.4,60.9,72.2,60.8,72.2z"/>
		<path class="st2" d="M64.5,66.8c0.5,0.1,0.7,0.2,0.7,0.6C64.9,67.5,64.7,67.3,64.5,66.8z"/>
		<path class="st2" d="M68.2,73.6c0-0.2,0-0.3-0.1-0.5c0.2,0.3,0.5,0.6,0.7,1c0,0.2,0,0.3,0.1,0.5C68.7,74.2,68.4,73.9,68.2,73.6z"
			/>
		<path class="st2" d="M66.3,71.3c0-0.2,0-0.3-0.1-0.5c0.3,0.1,0.5,0.4,0.6,0.7c0,0.2,0.2,0.3,0.1,0.5
			C66.6,71.8,66.4,71.6,66.3,71.3z"/>
		<path class="st2" d="M64.4,69.2c-0.1-0.1-0.2-0.3,0-0.4c0.1,0,0.2,0,0.3,0.1c0.1,0.1,0.2,0.2,0.1,0.3
			C64.6,69.4,64.5,69.2,64.4,69.2z"/>
		<path class="st2" d="M78.5,89.2c-0.2-0.3-0.3-0.6-0.1-1.1C78.6,88.5,78.7,88.8,78.5,89.2C78.5,89.2,78.5,89.2,78.5,89.2z"/>
		<path class="st2" d="M77.8,86c0,0,0.1-0.1,0.1-0.1c0.2,0.3,0.3,0.6,0.2,1.1C77.7,86.6,77.7,86.3,77.8,86z"/>
		<path class="st2" d="M77.4,83.7c0.1,0.3,0.3,0.5,0.1,0.9c-0.3-0.3-0.4-0.6-0.4-1C77.3,83.5,77.3,83.6,77.4,83.7z"/>
		<path class="st2" d="M60.4,69.5c0,0-0.1,0.1-0.1,0.1c-0.2-0.3-0.3-0.7-0.2-1.1c0,0,0.1-0.1,0.1-0.1C60.4,68.7,60.5,69.1,60.4,69.5
			z"/>
		<path class="st2" d="M75.2,84.4c-0.1-0.1-0.3-0.2-0.4-0.2c-0.2-0.2-0.4-0.5-0.4-0.8c0.2-0.1,0.2,0.2,0.4,0.2
			C75,83.8,75.2,84.1,75.2,84.4z"/>
		<path class="st2" d="M77.7,89.7c-0.1,0-0.1,0.1-0.2,0.1c-0.2-0.3-0.4-0.6-0.4-1c0.1,0,0.1-0.1,0.2-0.1
			C77.4,89,77.6,89.4,77.7,89.7z"/>
		<path class="st2" d="M78.5,89.2C78.5,89.2,78.5,89.2,78.5,89.2c0.3,0.2,0.4,0.5,0.3,0.8c0,0.2-0.1,0.2-0.2,0.1
			C78.5,89.9,78.3,89.6,78.5,89.2z"/>
		<path class="st2" d="M62.4,65.4c0.3,0,0.5,0.1,0.6,0.4c0,0-0.1,0.1-0.1,0.1C62.6,65.8,62.3,65.8,62.4,65.4z"/>
		<path class="st2" d="M63,67.3c0,0-0.1,0.1-0.1,0.1c-0.4-0.1-0.6-0.5-0.7-0.8c0.1,0,0.1-0.1,0.2-0.1C62.5,66.7,62.8,67,63,67.3z"/>
		<path class="st2" d="M62.5,77.3c0.1,0,0.1-0.1,0.2-0.1c0.2,0.3,0.4,0.6,0.3,1C62.6,78,62.7,77.6,62.5,77.3z"/>
		<path class="st2" d="M66.9,72c0-0.2,0-0.3-0.1-0.5c0.2,0.3,0.4,0.5,0.6,0.8c0,0.2,0,0.3,0.1,0.5C67.3,72.5,67.1,72.2,66.9,72z"/>
		<path class="st2" d="M70.1,71.4c0-0.1,0-0.2,0-0.3c0.2,0.2,0.4,0.4,0.8,0.8C70.3,71.9,70.2,71.6,70.1,71.4z"/>
		<path class="st2" d="M72,73.1c-0.1,0-0.1,0.1-0.2,0.1c-0.2-0.2-0.4-0.4-0.7-0.7C71.7,72.5,71.8,72.9,72,73.1z"/>
		<path class="st2" d="M70.6,83.9c-0.1,0-0.1,0.1-0.2,0.1c-0.2-0.3-0.5-0.6-0.7-1c0-0.1,0-0.2,0-0.3C70,83.2,70.3,83.5,70.6,83.9z"
			/>
		<path class="st2" d="M69.2,86.3c0,0.1,0,0.2,0,0.3c-0.3-0.2-0.5-0.5-0.8-0.7C68.8,85.8,69,86.1,69.2,86.3z"/>
		<path class="st2" d="M76.8,81.6c-0.1,0-0.2-0.1-0.3-0.1c-0.2-0.3-0.3-0.6-0.2-1C76.7,80.8,76.6,81.3,76.8,81.6z"/>
		<path class="st2" d="M74.8,83.6c-0.1-0.1-0.3-0.2-0.4-0.2c-0.2-0.3-0.3-0.6-0.5-0.9c0.1,0.1,0.3,0.2,0.4,0.2
			C74.5,83,74.7,83.3,74.8,83.6z"/>
		<path class="st2" d="M71.9,85.8c-0.1-0.2-0.1-0.4-0.2-0.6c0.3,0.2,0.5,0.4,0.6,0.7c0,0.2,0.2,0.3,0.1,0.5
			C72.1,86.2,72,86,71.9,85.8z"/>
		<path class="st2" d="M72.4,88.9c0.4,0.1,0.7,0.3,0.7,0.8l0,0c-0.3-0.2-0.5-0.4-0.8-0.5C72.3,89.1,72.3,89,72.4,88.9z"/>
		<path class="st2" d="M67.3,68.7c0.2,0.2,0.6,0.2,0.4,0.5c-0.1,0.2-0.3-0.1-0.4-0.2C67,69,67.1,68.8,67.3,68.7z"/>
		<path class="st2" d="M61.3,72.9c0.1,0.2,0.3,0.5,0,0.5c-0.3,0-0.2-0.4-0.3-0.6C61.2,72.7,61.3,72.7,61.3,72.9z"/>
		<path class="st2" d="M67.5,85c0.1,0,0.1-0.1,0.2-0.1c0.1,0.2,0.5,0.3,0.4,0.6C67.8,85.5,67.7,85.2,67.5,85z"/>
		<path class="st2" d="M70.1,87.3c0-0.1,0-0.2,0-0.3c0.1,0.2,0.6,0.3,0.4,0.6C70.4,87.8,70.2,87.5,70.1,87.3z"/>
		<path class="st2" d="M75.1,77.5c-0.1,0-0.1,0.1-0.2,0.1c-0.2-0.4-0.4-0.7-0.6-1.1c0.1,0,0.2,0.1,0.3,0.1
			C74.8,76.9,74.9,77.2,75.1,77.5z"/>
		<path class="st2" d="M61.6,74.9c0.1,0,0.2,0.1,0.3,0.1c0.1,0.2,0.3,0.5,0,0.6C61.7,75.6,61.7,75.1,61.6,74.9z"/>
		<path class="st2" d="M77.4,83.7c-0.1,0-0.2-0.1-0.3-0.1c-0.1-0.2-0.3-0.5,0-0.5C77.4,83,77.3,83.5,77.4,83.7z"/>
		<path class="st2" d="M74.9,90.8c-0.3,0-0.5-0.1-0.5-0.4C74.7,90.3,74.8,90.5,74.9,90.8z"/>
		<path class="st2" d="M64.3,66.8c-0.4,0.1-0.7-0.1-0.6-0.3c0-0.3,0.2-0.1,0.4,0C64.2,66.5,64.2,66.6,64.3,66.8z"/>
		<path class="st2" d="M72.4,88.9c0,0.1,0,0.2,0,0.3c-0.2-0.2-0.6-0.3-0.7-0.7C72,88.4,72.2,88.7,72.4,88.9z"/>
		<path class="st2" d="M64.8,75.6L64.8,75.6l0.2-0.1c0.2,0.4,0.4,0.7,0.6,1.1c-0.1,0-0.2,0-0.3-0.1C65.1,76.1,65,75.9,64.8,75.6z"/>
		<path class="st2" d="M60.5,66.2c-0.4-0.1-0.4-0.4-0.5-0.7C60.6,65.6,60.4,65.9,60.5,66.2z"/>
		<path class="st2" d="M61.3,72.9c-0.1,0-0.2-0.1-0.3-0.1c-0.1-0.2-0.1-0.4-0.2-0.6c0.1,0,0.2,0.1,0.3,0.1
			C61.2,72.5,61.3,72.7,61.3,72.9z"/>
		<path class="st2" d="M67.3,68.7c0,0.1,0,0.2,0,0.3c-0.2-0.1-0.4-0.3-0.5-0.4c0-0.1,0-0.2,0-0.3C66.9,68.5,67.1,68.6,67.3,68.7z"/>
		<path class="st2" d="M72.4,86.3c0-0.2,0-0.3-0.1-0.5c0.2,0.3,0.4,0.5,0.6,0.8c-0.1,0-0.1,0.1-0.2,0.1
			C72.6,86.6,72.5,86.5,72.4,86.3z"/>
		<path class="st2" d="M78.6,90.2c0.1,0,0.1-0.1,0.2-0.1c0.1,0.3,0.2,0.5,0.1,0.8C78.5,90.7,78.6,90.4,78.6,90.2z"/>
		<path class="st2" d="M66.2,83.4c-0.1,0-0.1,0.1-0.2,0.1c-0.2-0.2-0.3-0.4-0.5-0.6c0-0.1,0-0.2,0.1-0.3
			C65.8,82.8,66,83.1,66.2,83.4z"/>
	</g>
	<path class="st3" d="M73.7,52.1c2.8-0.8,5.6-0.5,8.4,0c3,0.5,5.9,1.6,8.8,2.5c1.1,0.3,1.6,2.3,0.8,3.2c-2.3,2.5-4.5,5.1-7.1,7.3
		c-3.9,3.4-8.4,4.7-13.5,3.8c-3-0.5-6-1.3-8.8-2.3c-0.6-0.2-1.3-0.1-1.8-0.8c-0.8-1.2-0.8-2,0.2-3.1c2.2-2.5,4.4-5.1,7-7.2
		C69.6,54,71.5,52.7,73.7,52.1z"/>
	<g>
		<path class="st2" d="M76.5,65.7c0.8-0.2,1.5-0.4,2.3-0.6c0.1,0,0.2,0,0.3,0.1c-0.9,0.5-1.9,0.8-2.9,0.8
			C76.1,65.7,76.4,65.8,76.5,65.7z"/>
		<path class="st2" d="M74.9,62.8c1.2-0.3,2.5-0.7,3.7-1c0.2-0.2,0.2-0.1,0.3,0.1c-1.5,0.6-3,0.9-4.6,1.3
			C74.2,62.7,74.6,62.8,74.9,62.8z"/>
		<path class="st2" d="M77.3,57.8c-1.1,0.3-2.2,0.6-3.3,0.9c-0.3,0.1-0.6,0.5-0.9,0c1.5-0.5,3-1,4.6-1.3
			C77.7,57.9,77.5,57.8,77.3,57.8z"/>
		<path class="st2" d="M75.7,54.9c-0.7,0.2-1.4,0.4-2,0.6c-0.1,0-0.2,0-0.3-0.1c0.8-0.4,1.6-0.7,2.5-0.7
			C75.9,54.8,75.8,54.8,75.7,54.9z"/>
		<path class="st2" d="M77.3,57.8c0.1-0.1,0.2-0.2,0.4-0.3c0.5-0.2,1.1-0.4,1.7-0.3c0,0.1-0.1,0.2-0.2,0.3
			C78.6,57.7,77.9,57.9,77.3,57.8z"/>
		<path class="st2" d="M88.8,57.4c0.5-0.2,1-0.5,1.4-0.7c0,0.1,0.1,0.2,0.1,0.3c-0.5,0.3-0.9,0.6-1.5,0.7
			C88.8,57.6,88.8,57.5,88.8,57.4z"/>
		<path class="st2" d="M86.1,58.8c0.6-0.3,1.2-0.6,1.8-0.9c0,0.1,0.1,0.2,0.1,0.3c-0.6,0.3-1.2,0.5-1.9,0.8
			C86,58.9,86,58.9,86.1,58.8z"/>
		<path class="st2" d="M81.6,64c-0.6,0.4-1.2,0.7-1.9,0.9c-0.2,0-0.2-0.1,0-0.2c0.6-0.3,1.3-0.6,1.9-0.9
			C81.7,63.8,81.8,63.9,81.6,64z"/>
		<path class="st2" d="M78.9,61.9c-0.1,0-0.2-0.1-0.3-0.1c0.5-0.3,1-0.5,1.6-0.6c0.1,0,0.2,0,0.3,0.1C80,61.7,79.4,61.7,78.9,61.9z"
			/>
		<path class="st2" d="M73.1,58.8c0.3,0,0.6,0,0.9,0c-0.6,0.4-1.2,0.5-1.8,0.7c-0.1-0.1-0.3,0.1-0.5-0.1
			C72.1,59,72.6,58.9,73.1,58.8z"/>
		<path class="st2" d="M74.9,62.8c-0.2,0.1-0.4,0.2-0.6,0.4c-0.5,0.2-1,0.3-1.5,0.3c0-0.1,0.1-0.2,0.2-0.2
			C73.6,62.9,74.2,62.7,74.9,62.8z"/>
		<path class="st2" d="M83.8,60.1c-0.7,0.3-1.4,0.5-2.1,0.8c-0.2,0-0.2-0.1-0.1-0.2c0.4-0.4,1-0.4,1.5-0.6
			C83.3,60,83.5,59.6,83.8,60.1z"/>
		<path class="st2" d="M63.2,64.6c0.6-0.1,1.2-0.1,1.8-0.2c0,0.1,0,0.2,0,0.3c-0.6,0-1.1,0.2-1.8,0.1C63.1,64.7,63.1,64.7,63.2,64.6
			z"/>
		<path class="st2" d="M62.5,63.4c-0.5,0.3-1,0.5-1.6,0.8c0-0.1-0.1-0.2-0.1-0.2c0.5-0.2,1.1-0.5,1.6-0.7
			C62.6,63.2,62.6,63.3,62.5,63.4z"/>
		<path class="st2" d="M73.4,55.3c0.1,0,0.2,0.1,0.3,0.1c-0.6,0.3-1.3,0.5-1.9,0.8c-0.2,0-0.2-0.1,0-0.2
			C72.2,55.7,72.8,55.5,73.4,55.3z"/>
		<path class="st2" d="M76.5,65.7c-0.1,0.1-0.2,0.2-0.4,0.3c-0.6,0.1-1.1,0.3-2,0.1C75.1,65.9,75.8,65.8,76.5,65.7z"/>
		<path class="st2" d="M83.5,56.5c0.5-0.1,0.9-0.3,1.4-0.2c0.2,0,0.2,0.1,0,0.2c-0.6,0.1-1.2,0.2-1.8,0.3
			C83,56.4,83.3,56.5,83.5,56.5z"/>
		<path class="st2" d="M68.9,63.9c0.6-0.1,1.2-0.2,1.9-0.3c0.1,0,0.1,0.1,0.1,0.2c-0.6,0.2-1.2,0.4-1.9,0.3
			C68.7,64,68.7,64,68.9,63.9z"/>
		<path class="st2" d="M68.2,60.9c-0.5,0.2-1.1,0.4-1.9,0.8c0.5-0.6,1-0.7,1.4-0.9C68,60.7,68.1,60.5,68.2,60.9z"/>
		<path class="st2" d="M72.8,66.4c-0.5,0-0.9,0.1-1.4,0.1c0-0.1,0-0.2,0-0.3c0.4-0.1,0.9-0.1,1.4,0C72.9,66.2,72.9,66.3,72.8,66.4z"
			/>
		<path class="st2" d="M70.8,63.8c0-0.1,0-0.1-0.1-0.2c0.3-0.1,0.7-0.2,1.1-0.1c0.2,0,0.2,0.1,0.1,0.2
			C71.5,63.8,71.1,63.9,70.8,63.8z"/>
		<path class="st2" d="M67.2,58.6c0.2-0.4,0.4-0.5,1-0.6C67.8,58.5,67.5,58.6,67.2,58.6z"/>
		<path class="st2" d="M78.3,54.3c0.5,0,0.9-0.1,1.4-0.1c0,0.1,0,0.2,0,0.3c-0.5,0-0.9,0-1.4,0.1C78.2,54.4,78.2,54.4,78.3,54.3z"/>
		<path class="st2" d="M70.2,66.5c-0.3,0-0.7,0.1-1-0.3c0.4,0,0.8,0,1.2,0C70.4,66.3,70.3,66.4,70.2,66.5z"/>
		<path class="st2" d="M71,59.8c-0.3,0.3-0.6,0.4-1,0.4c-0.1-0.1-0.3,0.1-0.5-0.1c0.3-0.3,0.6-0.4,1-0.4
			C70.7,59.8,70.9,59.6,71,59.8z"/>
		<path class="st2" d="M68.9,63.9c0,0.1,0,0.1,0,0.2c-0.5,0.2-1.1,0.3-1.7,0.2c-0.2,0-0.2-0.1,0-0.2C67.7,64,68.3,64,68.9,63.9z"/>
		<path class="st2" d="M67.2,64.1c0,0.1,0,0.1,0,0.2c-0.5,0.2-1,0.3-1.7,0.2C66.1,64.1,66.7,64.2,67.2,64.1z"/>
		<path class="st2" d="M63.6,65.9c-0.5,0.1-0.9,0-1.3-0.2c0.4-0.2,0.9-0.1,1.3,0.1C63.7,65.8,63.7,65.8,63.6,65.9z"/>
		<path class="st2" d="M86.1,58.8c0,0.1,0,0.1,0.1,0.2c-0.5,0.2-0.9,0.4-1.4,0.6c-0.2,0-0.2-0.1,0-0.2C85.2,59,85.6,58.9,86.1,58.8z
			"/>
		<path class="st2" d="M84.8,56.5L84.8,56.5l-0.1-0.2c0.5-0.1,0.9-0.3,1.5-0.1C85.8,56.5,85.3,56.4,84.8,56.5z"/>
		<path class="st2" d="M88.2,56c-0.5,0.1-1,0.3-1.7,0.1c0.6-0.3,1.1-0.2,1.6-0.3C88.2,55.9,88.3,55.9,88.2,56z"/>
		<path class="st2" d="M90.9,57.6c-0.4,0.6-0.7,0.9-1.3,0.8C90,58.1,90.3,57.7,90.9,57.6z"/>
		<path class="st2" d="M87.8,60.1c0-0.5,0.3-0.7,0.8-0.8C88.5,59.8,88.1,59.9,87.8,60.1L87.8,60.1z"/>
		<path class="st2" d="M85.7,54.5c-0.3,0.1-0.7,0.1-1.2-0.2c0.5-0.2,0.8-0.2,1.1,0C85.8,54.4,85.8,54.4,85.7,54.5z"/>
		<path class="st2" d="M81.3,54.1c0.3,0,0.7-0.1,1.2,0.2c-0.6,0.1-1,0.2-1.4,0C81.1,54.2,81.2,54.2,81.3,54.1z"/>
		<path class="st2" d="M81.3,57.1c-0.4,0.2-0.7,0.2-1.1,0.2c0.1-0.3,0.4-0.2,0.6-0.4c0.3-0.1,0.6-0.2,0.9-0.1
			C81.6,57,81.3,57,81.3,57.1z"/>
		<path class="st2" d="M69.5,57.4c-0.3,0.3-0.6,0.5-1.2,0.6c0.2-0.5,0.6-0.6,0.9-0.8C69.3,57.3,69.5,57.2,69.5,57.4z"/>
		<path class="st2" d="M63.4,62.8c0.4-0.2,0.8-0.4,1.2-0.6c-0.2,0.5-0.7,0.6-1.1,0.8C63.3,62.9,63.3,62.8,63.4,62.8z"/>
		<path class="st2" d="M78.3,54.3c0,0.1,0,0.1,0,0.2c-0.5,0.1-0.9,0.3-1.5,0.2c-0.2,0-0.2-0.1-0.1-0.2
			C77.3,54.4,77.8,54.3,78.3,54.3z"/>
		<path class="st2" d="M64.7,65.9c0.3-0.1,0.7-0.1,1.1,0.1c-0.4,0.3-0.7,0.2-1,0C64.6,66,64.6,66,64.7,65.9z"/>
		<path class="st2" d="M63.2,64.6c0,0.1,0,0.1,0,0.2c-0.5,0.1-0.9,0.3-1.4,0.1C62.3,64.5,62.8,64.7,63.2,64.6z"/>
		<path class="st2" d="M90.5,55.6c0.3-0.1,0.6-0.1,0.9,0c-0.3,0.3-0.6,0.3-0.9,0.2C90.4,55.8,90.4,55.7,90.5,55.6z"/>
		<path class="st2" d="M65.8,59.7c-0.2,0.2-0.5,0.5-0.9,0.5c0-0.4,0.4-0.4,0.6-0.6C65.6,59.6,65.8,59.5,65.8,59.7z"/>
		<path class="st2" d="M83.4,62.8c0.3-0.2,0.6-0.4,1-0.6c0.1,0,0.2,0,0.3,0.1c-0.2,0.3-0.6,0.4-1,0.6C83.6,62.9,83.5,62.9,83.4,62.8
			z"/>
		<path class="st2" d="M90.5,55.6c0,0.1,0,0.1,0.1,0.2c-0.4,0.1-0.8,0.2-1.3,0.1c-0.2,0-0.2-0.1-0.1-0.2
			C89.7,55.7,90.1,55.6,90.5,55.6z"/>
		<path class="st2" d="M80.7,56.9c-0.2,0.1-0.4,0.2-0.6,0.4c-0.3,0.1-0.6,0.1-1,0.2c0.1-0.1,0.1-0.2,0.2-0.3
			C79.8,57.1,80.3,57,80.7,56.9z"/>
		<path class="st2" d="M67.4,66.4c-0.3-0.1-0.6,0.1-0.9-0.2c0.4-0.2,0.7-0.1,1.1,0C67.6,66.3,67.5,66.3,67.4,66.4z"/>
		<path class="st2" d="M63.4,61.2c0.3-0.4,0.4-0.6,0.8-0.5C64.1,61.1,63.9,61.2,63.4,61.2z"/>
		<path class="st2" d="M71,59.8c-0.2,0-0.3-0.1-0.5-0.1c0.4-0.1,0.8-0.3,1.1-0.4c0.2,0,0.3,0.1,0.5,0.1C71.8,59.6,71.4,59.7,71,59.8
			z"/>
		<path class="st2" d="M68.2,60.9c-0.2,0-0.3-0.1-0.5-0.1c0.2-0.2,0.5-0.3,0.8-0.4c0.1,0.1,0.3-0.1,0.5,0.1
			C68.8,60.8,68.5,60.9,68.2,60.9z"/>
		<path class="st2" d="M65.6,62c-0.2,0-0.3,0.1-0.3-0.1c0-0.1,0.1-0.2,0.2-0.2c0.1-0.1,0.3-0.1,0.4,0C65.9,61.9,65.7,62,65.6,62z"/>
		<path class="st2" d="M89.1,54.9c-0.4,0.1-0.7,0.1-1.1-0.2c0.4-0.2,0.7-0.1,1,0.1C89,54.8,89,54.8,89.1,54.9z"/>
		<path class="st2" d="M85.7,54.5c0-0.1,0-0.1-0.1-0.2c0.3-0.1,0.7-0.1,1.1,0.1C86.4,54.8,86,54.6,85.7,54.5z"/>
		<path class="st2" d="M83.4,54.1c0.3,0,0.6-0.1,0.9,0.2c-0.4,0.2-0.7,0.2-1,0.1C83.2,54.2,83.4,54.2,83.4,54.1z"/>
		<path class="st2" d="M64.7,65.9c0,0.1,0,0.1,0.1,0.2c-0.4,0.1-0.8,0.1-1.1-0.1c0,0,0-0.1,0-0.1C63.9,65.7,64.3,65.7,64.7,65.9z"/>
		<path class="st2" d="M83.5,56.5c-0.1,0.1-0.2,0.2-0.3,0.3c-0.3,0.1-0.6,0.2-0.9,0.1c0-0.2,0.3-0.2,0.4-0.3
			C82.9,56.5,83.2,56.4,83.5,56.5z"/>
		<path class="st2" d="M89.2,55.7c0,0.1,0,0.1,0.1,0.2c-0.4,0.1-0.7,0.2-1.1,0.1c0-0.1,0-0.1,0-0.2C88.5,55.8,88.9,55.8,89.2,55.7z"
			/>
		<path class="st2" d="M89.1,54.9c0,0,0-0.1-0.1-0.1c0.3-0.1,0.6-0.1,0.9,0.1c0.2,0,0.2,0.1,0.1,0.2C89.6,55.1,89.3,55.1,89.1,54.9z
			"/>
		<path class="st2" d="M61.4,62.8c0.1-0.3,0.3-0.4,0.6-0.4c0,0,0.1,0.1,0.1,0.1C61.9,62.7,61.7,63,61.4,62.8z"/>
		<path class="st2" d="M63.4,62.8c0,0.1,0,0.1,0.1,0.2c-0.2,0.3-0.6,0.4-1,0.5c0-0.1,0-0.1,0-0.2C62.7,63.1,63.1,62.9,63.4,62.8z"/>
		<path class="st2" d="M72.8,66.4c0-0.1,0-0.1-0.1-0.2c0.3-0.1,0.6-0.2,1,0C73.5,66.5,73.1,66.3,72.8,66.4z"/>
		<path class="st2" d="M69.1,60.5c-0.2,0-0.3-0.1-0.5-0.1c0.3-0.1,0.6-0.2,0.9-0.3c0.2,0,0.3,0.1,0.5,0.1
			C69.7,60.3,69.4,60.4,69.1,60.5z"/>
		<path class="st2" d="M69.5,57.4c-0.1,0-0.2-0.1-0.3-0.1c0.3-0.1,0.5-0.3,1-0.5C70,57.2,69.7,57.3,69.5,57.4z"/>
		<path class="st2" d="M71.7,56.1c0,0.1,0,0.1,0,0.2c-0.3,0.1-0.5,0.3-0.9,0.5C71,56.1,71.4,56.2,71.7,56.1z"/>
		<path class="st2" d="M81.6,60.7c0,0.1,0,0.1,0.1,0.2c-0.4,0.1-0.8,0.3-1.1,0.4c-0.1,0-0.2-0.1-0.3-0.1
			C80.7,61,81.1,60.8,81.6,60.7z"/>
		<path class="st2" d="M83.4,62.8c0.1,0,0.2,0.1,0.3,0.1c-0.3,0.2-0.6,0.4-0.9,0.5C82.8,63,83.1,62.9,83.4,62.8z"/>
		<path class="st2" d="M81.3,54.1c-0.1,0.1-0.1,0.2-0.2,0.2c-0.3,0.1-0.7,0.1-1-0.1C80.5,54,80.9,54.2,81.3,54.1z"/>
		<path class="st2" d="M82.6,56.6c-0.1,0.1-0.2,0.2-0.4,0.3c-0.3,0.1-0.6,0.1-1,0.2c0.1-0.1,0.2-0.2,0.4-0.3
			C81.9,56.7,82.3,56.7,82.6,56.6z"/>
		<path class="st2" d="M83.8,60.1c-0.2,0-0.4,0-0.7,0c0.2-0.2,0.5-0.3,0.8-0.4c0.1,0.1,0.3-0.1,0.5,0.1C84.2,60,84,60.1,83.8,60.1z"
			/>
		<path class="st2" d="M86.8,60.5c0.3-0.3,0.6-0.6,1-0.4l0,0c-0.2,0.2-0.5,0.4-0.7,0.6C87,60.7,86.9,60.6,86.8,60.5z"/>
		<path class="st2" d="M66.1,59.2c0.2-0.1,0.4-0.5,0.6-0.2c0.2,0.2-0.2,0.3-0.3,0.3C66.2,59.5,66.1,59.4,66.1,59.2z"/>
		<path class="st2" d="M68.3,66.1c0.2,0,0.5-0.1,0.5,0.1c-0.1,0.3-0.4,0.1-0.7,0.1C68,66.2,68,66.1,68.3,66.1z"/>
		<path class="st2" d="M81.6,64c0-0.1,0-0.1-0.1-0.2c0.2-0.1,0.4-0.4,0.7-0.2C82.2,63.9,81.9,63.9,81.6,64z"/>
		<path class="st2" d="M84.6,62.3c-0.1,0-0.2-0.1-0.3-0.1c0.2-0.1,0.4-0.5,0.7-0.2C85.2,62.1,84.8,62.2,84.6,62.3z"/>
		<path class="st2" d="M76.9,54.4c0,0.1,0,0.1,0.1,0.2c-0.4,0.1-0.8,0.2-1.2,0.3c0.1-0.1,0.1-0.2,0.2-0.3
			C76.2,54.6,76.5,54.5,76.9,54.4z"/>
		<path class="st2" d="M70.2,66.5c0.1-0.1,0.1-0.2,0.2-0.3c0.2,0,0.6-0.2,0.5,0.2C70.9,66.6,70.5,66.4,70.2,66.5z"/>
		<path class="st2" d="M83.4,54.1c-0.1,0.1-0.1,0.2-0.2,0.3c-0.2,0-0.5,0.1-0.5-0.1C82.8,53.9,83.2,54.2,83.4,54.1z"/>
		<path class="st2" d="M89.4,58.7c-0.1,0.3-0.2,0.5-0.5,0.4C88.9,58.8,89.2,58.7,89.4,58.7z"/>
		<path class="st2" d="M63.3,61.4c-0.1,0.4-0.3,0.6-0.5,0.5c-0.3-0.1,0-0.3,0.1-0.4C63,61.4,63.1,61.4,63.3,61.4z"/>
		<path class="st2" d="M86.8,60.5c0.1,0,0.2,0.1,0.3,0.1c-0.3,0.1-0.4,0.4-0.8,0.4C86.3,60.7,86.6,60.7,86.8,60.5z"/>
		<path class="st2" d="M71.8,63.6L71.8,63.6l-0.1-0.2c0.4-0.1,0.8-0.2,1.2-0.3c-0.1,0.1-0.1,0.2-0.2,0.2
			C72.5,63.5,72.1,63.6,71.8,63.6z"/>
		<path class="st2" d="M61.6,64.8c-0.3,0.4-0.5,0.2-0.8,0.2C61,64.6,61.3,64.8,61.6,64.8z"/>
		<path class="st2" d="M68.3,66.1c-0.1,0.1-0.1,0.2-0.2,0.3c-0.2,0-0.4,0-0.7,0c0.1-0.1,0.1-0.2,0.2-0.3
			C67.8,66.1,68,66.1,68.3,66.1z"/>
		<path class="st2" d="M66.1,59.2c0.1,0,0.2,0.1,0.3,0.1c-0.2,0.1-0.4,0.3-0.5,0.4c-0.1,0-0.2-0.1-0.3-0.1
			C65.7,59.4,65.9,59.3,66.1,59.2z"/>
		<path class="st2" d="M84.4,59.8c-0.2,0-0.3-0.1-0.5-0.1c0.3-0.1,0.6-0.2,1-0.3c0,0.1,0,0.1,0,0.2C84.7,59.6,84.6,59.7,84.4,59.8z"
			/>
		<path class="st2" d="M90,55.1c0-0.1,0-0.2-0.1-0.2c0.3,0,0.6,0,0.8,0.2C90.5,55.3,90.2,55.1,90,55.1z"/>
		<path class="st2" d="M79.7,64.7c0,0.1,0,0.1,0,0.2c-0.2,0.1-0.5,0.2-0.7,0.3c-0.1,0-0.2-0.1-0.3-0.1C79,64.9,79.4,64.8,79.7,64.7z
			"/>
	</g>
	<g>
		<g>
			<path class="st4" d="M69.8,68.6c-1.6-0.7-3.3-1.4-5.1-1.8c-0.1,0.2,0,0.3,0.2,0.4c1.6,0.8,3.3,1.4,5.1,1.8
				C70.1,68.8,70,68.7,69.8,68.6z"/>
			<path class="st4" d="M62.1,66c0.1,0.1,0.1,0.2,0.2,0.4c0.8,0.5,1.6,0.8,2.6,0.9c-0.1-0.1-0.1-0.2-0.2-0.4
				C63.9,66.4,63,66.1,62.1,66z"/>
		</g>
		<g>
			<path class="st4" d="M66.5,57.1c-1.2,1.3-2.3,2.7-3.2,4.3c0.2,0.2,0.3,0.1,0.4-0.1c1.3-1.3,2.3-2.7,3.3-4.3
				C66.8,56.9,66.6,56.9,66.5,57.1z"/>
			<path class="st4" d="M61.6,63.5c0.1,0,0.3,0,0.4,0c0.7-0.6,1.2-1.3,1.6-2.2c-0.1,0-0.3,0-0.4,0.1C62.5,62,62,62.7,61.6,63.5z"/>
		</g>
		<g>
			<path class="st4" d="M54.5,56.6c0.9,1.6,1.9,3.1,3.1,4.4c0.2-0.1,0.2-0.2,0.1-0.4c-0.9-1.6-1.9-3.1-3.1-4.5
				C54.4,56.3,54.3,56.5,54.5,56.6z"/>
			<path class="st4" d="M59.1,63.3c0-0.1,0.1-0.3,0.1-0.4c-0.4-0.8-0.9-1.6-1.5-2.2c0,0.1,0,0.3-0.1,0.4
				C57.9,61.9,58.5,62.6,59.1,63.3z"/>
		</g>
		<g>
			<path class="st4" d="M50.4,67.9c1.8-0.4,3.5-0.9,5.2-1.6c0-0.2-0.1-0.3-0.3-0.2c-1.8,0.3-3.5,0.8-5.2,1.5
				C50,67.9,50.2,68,50.4,67.9z"/>
			<path class="st4" d="M58.1,65.6c-0.1-0.1-0.2-0.1-0.3-0.2c-0.9,0.1-1.8,0.3-2.6,0.8c0.1,0.1,0.2,0.1,0.3,0.2
				C56.5,66.3,57.3,66,58.1,65.6z"/>
		</g>
		<g>
			<path class="st4" d="M59.8,75.3c0.2-1.8,0.3-3.6,0.1-5.4c-0.2,0-0.3,0.1-0.3,0.3c-0.2,1.8-0.3,3.6-0.1,5.4
				C59.7,75.6,59.8,75.5,59.8,75.3z"/>
			<path class="st4" d="M60,67.2c-0.1,0.1-0.2,0.2-0.3,0.3c-0.2,0.9-0.2,1.8-0.1,2.7c0.1-0.1,0.2-0.2,0.3-0.3
				C60.1,69,60.1,68.1,60,67.2z"/>
		</g>
	</g>
	<g>
		<path class="st4" d="M67.3,75.4c-1.1-1.9-2.3-3.6-3.8-5.2c-0.2,0.1-0.3,0.3-0.1,0.5c1.1,1.9,2.3,3.7,3.7,5.3
			C67.4,75.8,67.5,75.6,67.3,75.4z"/>
		<path class="st4" d="M61.6,67.5c0,0.2-0.1,0.3-0.1,0.5c0.5,1,1.1,1.9,1.9,2.6c0-0.2,0.1-0.3,0.1-0.5C63,69.1,62.4,68.3,61.6,67.5z
			"/>
	</g>
	<g>
		<path class="st4" d="M72,61.8c-2.1,0.5-4.2,1.1-6.1,2c0,0.3,0.2,0.3,0.4,0.2c2.1-0.4,4.2-1.1,6.2-1.9C72.4,61.8,72.2,61.7,72,61.8
			z"/>
		<path class="st4" d="M62.8,64.8c0.1,0.1,0.3,0.2,0.4,0.2c1.1-0.1,2.1-0.4,3.1-1c-0.1-0.1-0.3-0.1-0.4-0.2
			C64.7,63.9,63.7,64.2,62.8,64.8z"/>
	</g>
	<g>
		<path class="st4" d="M60.6,53.2c-0.2,2.1-0.3,4.3,0,6.4c0.3,0,0.4-0.1,0.3-0.3c0.3-2.2,0.3-4.3,0.1-6.5
			C60.7,52.7,60.5,52.9,60.6,53.2z"/>
		<path class="st4" d="M60.5,62.8c0.1-0.1,0.2-0.2,0.3-0.3c0.2-1.1,0.2-2.2,0-3.2c-0.1,0.1-0.2,0.2-0.3,0.3
			C60.3,60.7,60.3,61.8,60.5,62.8z"/>
	</g>
	<g>
		<path class="st4" d="M48.8,61.3c2,0.9,4,1.6,6.1,2c0.1-0.2,0-0.4-0.2-0.4c-2-0.9-4-1.6-6.1-2.1C48.4,61.1,48.5,61.3,48.8,61.3z"/>
		<path class="st4" d="M58,64.4c-0.1-0.1-0.1-0.3-0.2-0.4c-1-0.5-2-0.9-3.1-1c0.1,0.1,0.1,0.3,0.2,0.4C55.9,63.9,56.9,64.2,58,64.4z
			"/>
	</g>
	<g>
		<path class="st4" d="M52.9,75.1c1.4-1.6,2.7-3.3,3.8-5.2c-0.2-0.2-0.3-0.2-0.5,0.1c-1.5,1.6-2.8,3.3-3.9,5.2
			C52.6,75.3,52.8,75.3,52.9,75.1z"/>
		<path class="st4" d="M58.7,67.3c-0.2,0-0.3,0-0.5,0.1c-0.8,0.7-1.5,1.6-1.9,2.6c0.2,0,0.3,0,0.5-0.1
			C57.6,69.1,58.2,68.3,58.7,67.3z"/>
	</g>
</g>
</svg>
