<?xml version="1.0" encoding="utf-8"?>
<!-- Generator: Adobe Illustrator 23.0.0, SVG Export Plug-In . SVG Version: 6.00 Build 0)  -->
<svg version="1.1" id="Calque_1" xmlns="http://www.w3.org/2000/svg" xmlns:xlink="http://www.w3.org/1999/xlink" x="0px" y="0px"
	 viewBox="0 0 120 120" style="enable-background:new 0 0 120 120;" xml:space="preserve">
<style type="text/css">
	.st0{fill:#28311D;stroke:#28311D;stroke-width:0.8531;stroke-miterlimit:10;}
</style>
<g>
	<g>
		<path class="st0" d="M60.2,54.5C64,54.8,67.7,54,71,52.4c1.6-0.8,3.1-2.5,4.7-3.1c3.5-1.3,8.1,0.2,10.2-4.1c1.8-3.8,2.5-12,0-15.3
			c-2.8-3.7-8.4-4.5-12.7-4c-0.4,2.8,1.8,1.7,3.8,1.9c3.7,0.4,7.7,1.8,8.4,5.9c0.5,2.7-0.5,7-1.3,9.6c-1,3.3-4,4.2-7.6,4.1
			c4.1-16.1-17.6-14.1-25.9-7.1c-3.1,2.6-4.9,8.2-1.9,11.6C51.3,54.7,56.8,54.8,60.2,54.5z M64.9,37.1c1.6,1.9-0.1,4.7-2.3,4.1
			C63.6,40,63.8,38.3,64.9,37.1z M68.1,37.1c3.4-0.4,6.5,1.2,7.1,4.8c0.8,5-1.7,7.2-5.8,9C64.7,53,49,55.4,49.3,46.7
			c1.8,0.2,3.6,0.3,5.4,0.3C59.4,47,70,44,67.2,37C67.5,37,67.8,37.1,68.1,37.1z M53.6,40.6c2.7-1.5,5.9-2.7,8.9-3.3
			c-2.3,4.5-6,5.5-11.1,4.9C52.1,41.6,52.8,41,53.6,40.6z M51.3,42.3c0.2,0.3,0.2,0.5,0,0.9c-0.2-0.1-0.3-0.3-0.5-0.4
			C51,42.6,51.2,42.5,51.3,42.3z"/>
		<path class="st0" d="M42.6,55.3c3.8,0,3.8-4.4,0-4.4C38.8,50.9,38.8,55.3,42.6,55.3z M42.6,52.8c0.4,0,0.7,0.1,1.1,0.2
			c-0.5,0.9-1.6-0.1-2.2,0.1C41.8,52.9,42.1,52.8,42.6,52.8z"/>
		<path class="st0" d="M44.8,26.1c4.3,0,4.3-5.4,0-5.4C40.5,20.7,40.5,26.1,44.8,26.1z M44.8,22.6c1.8,0,1.8,1.5,0,1.5
			C43,24.1,43,22.6,44.8,22.6z"/>
		<path class="st0" d="M55.8,24.1c3.8,0,5.5-5.3,1-5.5C52.9,18.3,51.3,24.1,55.8,24.1z M56.1,20.6c1-0.3,2.4,0.3,0.9,1.2
			C55.5,22.6,53.8,21.3,56.1,20.6z"/>
		<path class="st0" d="M111.8,78.6c0.4-2.5-0.3-5.7-3.2-6.3c4.7-4.3,7.4-10.5,8.3-16.7c1.1-7.7,2.1-18.3-2-25.4
			c-1.8-3.2-4.7-4.7-8.3-4.5c-5.7,0.3-5.1,3.9-5.2,8.4c-0.1,2.9-1.5,11.8-7,9.1c3.9-5.1,8.6-15.8,0.3-19.4
			c-7.5-3.4-19.7-2.4-27.5-0.5c-6.9,1.6-14.3,4.7-19.9,9.1c-2.4,1.9-9.5,11-3.9,13.8c-1.6,1.3-4.1,0.8-5.8,2.7
			c-1.2,1.3-2.3,3.6-2.4,5.4c0,0.8,0.7,2.8,0.6,3.2c-0.4,1.5-3.7,2.1-4.4,3.5c-2.4,5.2,2,11.1,6.3,13.4c5.4,2.9,11.8,3.9,17.8,5
			c-1.4,3-6.3,2.7-9,2.5c-2.1-0.2-6.5-2.4-6.5,0.8c4.6,1.3,14.8,3.2,17.3-2.6c-0.5-0.2-1-0.5-1.5-0.6c3.4,0.6,6.9,1,10.4,1.2
			c-5.4,6.3-13,5.4-20.7,6.2c-2.2,0.2-7.2,0.9-8.5-1.7c-1.2-2.3,2.6-3,0.1-4.9c-3.4,2.4-3,6.4,0.9,8c3.9,1.6,8.8,0.3,12.8-0.2
			c0.6,4.3,0.4,10.8-5,10.9c-4.3,0.1-9.7-0.8-12.6-4.3c-2-2.4-3-6.1-2.3-9.2c0.6-3.1,2.8-5.1,5.9-5.2c1.7-0.1,2.9,0.8,2.9-1.6
			c-13.7-4-13.3,17.3-2.7,21c6.5,2.3,15.3,2.1,22,1.5c5.9-0.5,15-2.2,19-6.9C88.4,107,113.3,93.8,111.8,78.6z M37.2,58.8
			c0.8-0.6,0.4-1.1,0.4-2.1c0-2.2-0.6-3.2,0.7-5.5c1.4-2.4,2.7-2.1,4.8-3c3-1.3,1.9-2,0.9-4.4c-2.8-6.9,7.1-12,12-14.5
			c10.4-5.1,23.2-7.2,34.7-4.9c3.3,0.7,5.7,1.6,6.4,5c0.5,2.6,0.1,5.4-0.9,7.8c-0.7,1.5-4.1,4.1-4,5.8c0.1,3.8,7.1,1.5,8.8-0.2
			c3.4-3.4,0.3-14.7,4.5-15.4c0,5.8-0.9,12.5-5,16.9c-1.5,1.6-4.5,2-3.1,4.4c8.2-2.5,10.1-14.3,10.1-21.4c1,0.1,2.4-0.1,3.2,0.6
			c1.2,1.2-0.1,5.3-0.6,7c-1.1,3.7-2.9,7.2-5.4,10.3c-1.7,2.1-3.7,3.5-5.6,5.4c-1.1,1.1-2.3,1-0.6,2.7c8.2-4.5,13.5-14.1,14.5-23.2
			c1.8,2.7,3.2,7.8,2.5,10.4c-0.9,3.5-4.1,6.3-6.9,8.4c-2.6,2-5.4,3.6-8.3,5.1c-1.5,0.8-3.2,0.9-1.6,2.9c6.3-2.7,13.3-6.8,17.1-12.6
			c0,1.7,0.4,5-0.3,6.5c-0.7,1.4-3.2,2.9-4.5,3.9c-2.4,1.7-5,3.1-7.8,4.2c-1.9,0.8-7.6,1-6.2,3.9c6.6-1.1,13.2-4.6,18.2-9
			c-0.1,1.1-0.2,2.2-0.5,3.3c-0.5,2.5-0.6,2.2-2.3,3.7c-2.6,2.2-6.2,4-9.4,5.2c-2.2,0.8-6.3,0.3-5.8,3.2c5.4,0.4,11.5-3.5,15.6-6.3
			c-5.3,12-18.1,13.5-29.7,14.7c6.7-8.6,3.3-20.9-8.9-20c-4.4,0.3-18,4.1-14.4,11.1c1.1,2.2,4.7,2.5,6.7,1.5c2-1,0.4-0.6,1.2-2.3
			c0.9-1.8,2.3-1.8,4-2.4c3-1,4.6-1,4.7,2.9c0.1,3.9-3.8,8.6-7.7,9.7c-2.9,0.8-8-0.6-11-0.9c-2.5-0.3-5.1-0.6-7.5-1.3
			c2.1-2,1.2-6,0-8.3c-1.3-2.6-3.5-3.2-6.3-3.5c-2.4-0.2-4.8-0.3-7.2-0.9c-0.7-0.2-2.7-0.3-3.1-0.9C32.9,61.2,36.1,59.4,37.2,58.8z
			 M77,64.1c-2-2.2-7.6-0.4-9.7,1.3c-1.7,1.5-0.9,3.1-3.2,3.5c-1.3,0.2-2.2,0-2.6-1.2c-1.5-4.2,7-6.8,9.7-7.4
			c5.2-1.2,10.9-0.5,13.1,4.8c1.1,2.7,0.7,5.6-0.5,8.2c-0.8,1.8-2,3.9-3.7,4.6c-1.7,0.7-5,0-6.8-0.1C77,74.9,81,68.5,77,64.1z
			 M98.5,78.7c0.6-0.5,1.9-1.4,2.8-1.2c-0.6,2.3-0.3,3.8-1.9,5.8c-1.6,1.9-3.1,2.3-5.4,2.8C96.3,84.7,98.2,81.5,98.5,78.7z
			 M34.7,69.7c-1.1-1.3-1.4-3.6-1.7-5.4c1.7,0.9,4,1.2,5.8,1.5c-0.5,0.7-0.9,1.4-1.1,2.2c2.2,1.3,1.6-0.5,3-1.3
			c1.7-1,4.4-0.5,6.1,0.2c-1.5,0.4-2.7,1.6-3.2,2.9c2.2,1.6,1.4-0.3,3-0.7c2.4-0.7,3.7,1.6,3,4.3C48.1,78.7,37,72.4,34.7,69.7z
			 M50.5,99.3c2.7-2.9,2.8-7.7,2.3-11.4c0.8-0.1,4.1-0.9,4.9-0.2c0.6,0.5,0.4,3.7,0.4,4.5c0,1.9-2,6.3-0.9,7.2
			C54.9,99.4,52.7,99.4,50.5,99.3z M64.2,98.3c-2,0.4-3.9,0.7-5.9,0.8c1.2-1.5,1.5-3.6,1.7-5.5c0.1-1.4-0.7-4.2-0.2-5.5
			c0.4-1.2,1.2-1.1,2.7-1.8c2.2-1.2,4.1-3.1,5.7-5.1c-0.3-0.2-0.5-0.4-0.8-0.7c3.9,0.2,7.8,0.2,11.7,0.1C78,83,77,85.5,76.7,88
			c-0.3,2.1,0.6,3.9-0.6,5.5C73.8,96.3,67.4,97.5,64.2,98.3z M98.6,95.1c-5.7,2.4-15.2,3.8-19.2-2.4c-1.5-2.4-0.7-10.2,1.9-11.9
			c1.6-1.1,7.2-0.5,9.3-0.7c2-0.2,3.9-0.4,5.9-0.7c-0.5,2.2-4.2,4.7-3.2,6.9c-0.5,0.1-2.8,0.6-3.4,0.2c-0.3-1.6,2.4-1.9-0.3-3.1
			c-6.1,7,7.8,5.1,10.9,1.8c1-1.1,2-2.4,2.4-3.8c0.8-2.6,0.4-7.4,4.6-7.1c5.3,0.3,1.8,11.2,0.2,13.7C105.4,90.9,102,93.6,98.6,95.1z
			"/>
		<path class="st0" d="M10.4,55.2c1,0.5,5.6-3.6,7-4.3c2.3-1.2,4.8-2.2,7.4-2.5c2-0.3,4.8,0.9,4.4-2c-6-0.8-11.9,1.8-16.6,5.2
			c2.5-8.9,9.9-8.3,17.7-9c0.1-0.5,0-1.5-0.2-1.9c-4.7,0.4-11-0.2-15,2.9c0.7-3.1,1.1-3.7,3.6-5.3c2.1-1.3,4.6-2.1,7.1-2.4
			c2.2-0.3,6.7,1.4,6.3-1.9c-3.7-0.5-7.5-0.3-11,1c2.8-2.7,7.6-3.3,11.2-4.1c0-3.2-4-1.3-6.1-0.7c-2.3,0.7-4.6,1.8-6.4,3.4
			c-1.6,1.4-4.7,4-5.7,5.8c-1.1,2.1-1,5-2.1,7.2c-0.5,1-1.1,2.1-1.8,2.9c-0.5,0.5-1.6,1.1-1.9,1.7c-0.3,0.8,0.2,0.5,0.1,1.4
			c-0.1,1.2,0,2.5-0.2,3.9c-0.3,1.5-0.4,3.1-0.6,4.6C6.9,66,6.3,71.2,6.1,76.1C5.9,81.7,8,87.6,12.5,91.2c-5.2,0.7-7.4-7.1-7.9-10.8
			C3.9,75.8,4.2,71.2,5,66.6c1-6,2.1-12.1,3.1-18.1C9.3,40,14.1,34,21.9,30.3c2.7-1.3,5.6-2.3,8.5-2.8c2-0.4,4.6,0.5,4.3-2.2
			c-6.5-0.7-13.8,0.9-19.1,4.7C8.1,35.4,4.8,46.9,3.4,55.7c-1,6.2-1.6,13.4-1.4,19.7C2.2,81.5,3.3,86.2,7,90.9
			c1.5,1.9,1.2,2.1,3.4,2.8c1.6,0.5,3.1,0.5,4.7,0.5c3.8,0.1,5.7-0.4,8.5-2.9c-1.6-3-5.5,2.1-8-0.3c-4-3.7,5.4-6.6,7.4-7.4
			c0-0.5-0.4-1.4-0.7-1.8c-3.7,1.5-8.6,2.2-9.4,7c-1.1-1-1.7-2.2-2.5-3.4c1.5-0.6,2.7-4.8,4.2-6.3c2.1-2,8.6-3,8.3-5.7
			c-6.4-1.1-11,5.5-13.5,10.1c-0.6-1.4-1.2-2.3-0.9-3.7c0.3-1.7,2.2-3.7,3.2-5c1.7-2,3.7-3.7,6.2-4.6c2-0.7,5.3,0.5,4.8-2.4
			c-6.4-0.7-11.5,3.6-14.7,8.8c0.1-3.5,1.4-5.2,3.9-7.7c1.9-2,4.2-3.9,6.8-4.7c2.1-0.7,5.2,0.6,5.1-2.3c-6.2-1.3-11.7,3.4-15.2,7.9
			c0.4-4,0-6.2,3.2-8.9c2.3-1.9,4.9-3.6,7.8-4.6c2.1-0.7,6.1,0.4,5.4-2.6c-5.8-0.4-11.4,2.8-15.5,6.6C9.7,58.7,9.9,56.9,10.4,55.2z
			 M10.5,53.1c-0.1-0.2-0.2-0.4-0.3-0.6c0.3,0.1,0.5,0.2,0.8,0.2C10.9,52.9,10.7,53,10.5,53.1z M10.4,52"/>
	</g>
	<path class="st0" d="M71,52.4c1.6-0.8,3.1-2.5,4.7-3.1c3.5-1.3,8.1,0.2,10.2-4.1c1.8-3.8,2.5-12,0-15.3c-2.8-3.7-8.4-4.5-12.7-4
		c-0.4,2.8,1.8,1.7,3.8,1.9c3.7,0.4,7.7,1.8,8.4,5.9c0.5,2.7-0.5,7-1.3,9.6c-1,3.3-4,4.2-7.6,4.1c4.1-16.1-17.6-14.1-25.9-7.1
		c-3.1,2.6-4.9,8.2-1.9,11.6c2.5,2.8,7.9,2.9,11.4,2.7C64,54.8,67.7,54,71,52.4z M64.9,37.1c1.6,1.9-0.1,4.7-2.3,4.1
		C63.6,40,63.8,38.3,64.9,37.1z M53.6,40.6c2.7-1.5,5.9-2.7,8.9-3.3c-2.3,4.5-6,5.5-11.1,4.9C52.1,41.6,52.8,41,53.6,40.6z
		 M51.3,42.3c0.2,0.3,0.2,0.5,0,0.9c-0.2-0.1-0.3-0.3-0.5-0.4C51,42.6,51.2,42.5,51.3,42.3z M49.3,46.7c1.8,0.2,3.6,0.3,5.4,0.3
		C59.4,47,70,44,67.2,37c0.3,0,0.7,0.1,1,0.1c3.4-0.4,6.5,1.2,7.1,4.8c0.8,5-1.7,7.2-5.8,9C64.7,53,49,55.4,49.3,46.7z"/>
</g>
</svg>
