<?xml version="1.0" standalone="no"?>
<!DOCTYPE svg PUBLIC "-//W3C//DTD SVG 20010904//EN"
 "http://www.w3.org/TR/2001/REC-SVG-20010904/DTD/svg10.dtd">
<svg version="1.0" xmlns="http://www.w3.org/2000/svg"
 width="226.000000pt" height="226.000000pt" viewBox="0 0 226.000000 226.000000"
 preserveAspectRatio="xMidYMid meet">
<metadata>
Created by potrace 1.11, written by Peter Selinger 2001-2013
</metadata>
<g transform="translate(0.000000,226.000000) scale(0.100000,-0.100000)"
fill="#000000" stroke="none">
<path d="M913 2145 c-17 -7 -71 -40 -120 -72 -48 -33 -161 -103 -249 -156
-191 -114 -254 -168 -296 -250 -39 -78 -77 -229 -84 -337 -12 -167 35 -297
160 -445 84 -100 106 -138 106 -184 0 -72 -63 -159 -134 -186 -35 -14 -50 -15
-85 -5 -49 13 -109 63 -136 114 -14 25 -26 36 -42 36 -32 0 -30 -31 7 -142 62
-184 124 -227 326 -228 174 0 316 57 383 154 32 46 91 182 91 210 0 24 15 26
61 9 24 -9 46 -18 48 -19 2 -2 -6 -15 -17 -29 -23 -29 -40 -101 -44 -185 -3
-49 -1 -55 18 -58 27 -4 33 12 44 111 5 50 14 85 24 95 15 15 16 9 16 -73 l0
-89 -60 -93 c-33 -52 -60 -98 -60 -104 0 -5 33 -9 74 -9 74 0 74 0 81 -29 8
-35 39 -66 60 -58 17 7 20 42 5 52 -5 3 -10 13 -10 21 0 11 16 14 70 14 64 0
86 -9 60 -25 -13 -8 -13 -52 0 -60 21 -13 60 24 60 55 l0 30 70 0 c39 0 70 4
70 9 0 6 -27 53 -60 106 l-61 96 3 87 3 87 18 -37 c9 -21 17 -59 18 -85 1 -66
12 -97 33 -101 33 -7 37 11 21 112 -11 73 -21 106 -39 130 l-24 32 52 19 c28
11 54 21 57 23 3 1 13 -31 23 -71 9 -41 34 -107 54 -148 32 -64 44 -78 92
-107 90 -54 148 -67 300 -67 124 0 139 2 185 25 70 35 109 91 146 211 17 55
28 106 25 114 -11 30 -42 15 -74 -33 -35 -54 -90 -97 -139 -107 -69 -14 -178
69 -204 154 -19 62 -1 103 90 209 131 154 171 252 171 418 0 160 -41 325 -105
421 -39 59 -100 105 -303 227 -79 47 -186 115 -239 151 -53 36 -107 68 -120
71 -37 10 -88 -4 -132 -36 -41 -30 -94 -40 -107 -19 -9 16 -105 59 -129 59
-11 -1 -34 -7 -52 -15z"/>
</g>
</svg>
